<?xml version="1.0" encoding="utf-8"?>
<!-- Generator: Adobe Illustrator 22.0.1, SVG Export Plug-In . SVG Version: 6.00 Build 0)  -->
<svg version="1.1" xmlns="http://www.w3.org/2000/svg" xmlns:xlink="http://www.w3.org/1999/xlink" x="0px" y="0px"
	 viewBox="0 0 500 500" style="enable-background:new 0 0 500 500;" xml:space="preserve">
<style type="text/css">
	.st0{fill:#F0F0F0;}
	.st1{fill:#E0E0E0;}
	.st2{fill:#27DEBF;}
	.st3{opacity:0.2;}
	.st4{fill:#FFFFFF;}
	.st5{fill:#455A64;}
	.st6{fill:#37474F;}
	.st7{fill:#263238;}
	.st8{fill:#FAFAFA;}
	.st9{fill:#F28F8F;}
	.st10{opacity:0.1;}
	.st11{fill:#FFA8A7;}
	.st12{fill:#F5F5F5;}
	.st13{fill:#EBEBEB;}
	.st14{opacity:0.7;}
	.st15{opacity:0.3;fill:#FFFFFF;}
</style>
<g id="Floor">
	<g id="XMLID_16108_">
		<path id="XMLID_16112_" class="st0" d="M101.4,419c83.8,43.8,219.6,43.8,303.4,0c83.8-43.8,83.8-114.7,0-158.5
			c-83.8-43.8-219.6-43.8-303.4,0C17.6,304.3,17.6,375.3,101.4,419z"/>
	</g>
</g>
<g id="Shadow">
	<g id="XMLID_16168_">
		<path id="XMLID_16169_" class="st1" d="M422.9,300.8c-12.7,6.1-33.3,6.1-46,0c-12.7-6.1-12.7-15.9,0-21.9c12.7-6.1,33.3-6.1,46,0
			C435.6,285,435.6,294.8,422.9,300.8z"/>
	</g>
</g>
<g id="Plants">
	<g>
		<g>
			<g>
				<path id="XMLID_16447_" class="st2" d="M92.6,335.9c0,0,1-14.7-4.1-27.3c-5.1-12.5-13.7-21.3-22.8-23.7
					c-9.1-2.4-18.1,4.7-9.3,12.3c8.8,7.6,25.2,16.8,29.3,40L92.6,335.9z"/>
				<path id="XMLID_41_" class="st3" d="M92.6,335.9c0,0,1-14.7-4.1-27.3c-5.1-12.5-13.7-21.3-22.8-23.7c-9.1-2.4-18.1,4.7-9.3,12.3
					c8.8,7.6,25.2,16.8,29.3,40L92.6,335.9z"/>
			</g>
			<path id="XMLID_17945_" class="st4" d="M89.3,337C89.3,337,89.3,337,89.3,337c-0.3,0-0.5-0.2-0.5-0.5
				c0.6-17.4-11.9-42.1-28.9-47.8c-0.3-0.1-0.4-0.4-0.3-0.6c0.1-0.3,0.4-0.4,0.6-0.3c17.4,5.9,30.2,31.1,29.6,48.8
				C89.8,336.8,89.6,337,89.3,337z"/>
		</g>
		<g>
			<g id="XMLID_15700_">
				<path id="XMLID_15702_" class="st2" d="M89.9,371.3c0,0-1.7,1.1-4.9,1.3c-2,0.1-4-0.2-5.9-0.9c-3.3-1.3-6.1-3.2-7-6.8
					c-0.7-2.9,0.4-6.1-0.9-8.8c-1.2-2.6-5-4.4-7.5-5.2c-1.8-0.6-3.7-0.8-5.4-1.5c-1.8-0.7-3.5-1.8-4.2-3.6
					c-1.7-4.1,2.9-8.8,1.4-13.1c-0.7-2.1-2.8-3.4-4.7-4.6c-1.9-1.2-3.9-2.6-4.4-4.8c-0.5-2,0.5-4,1.9-5.5c3.4-3.5,9-3.8,13.5-2.1
					c1.4,0.5,2.8,1.3,4.3,1.7c5.7,1.5,11.7-2.2,17.4-0.9c3.7,0.9,6.7,4,7.5,7.6c0.3,1.2,0.3,2.5,0.6,3.8c0.7,3.1,4,3.8,4.8,7
					c0.7,2.9-0.2,5.9-0.7,8.8c-0.8,4.4-1.6,8.7-2.5,13.1c-0.5,2.4-1,4.7-1.5,7.1c-0.5,2.2,0.2,4.5-0.8,6.5
					C90.9,370.6,89.9,371.3,89.9,371.3z"/>
			</g>
			<g id="XMLID_15704_">
				<path id="XMLID_17944_" class="st4" d="M91.5,355.9c-0.2,0-0.5-0.2-0.5-0.4c-2.4-15.5-24.2-33.9-38.2-35.8
					c-0.3,0-0.5-0.3-0.4-0.6c0-0.3,0.3-0.5,0.6-0.4c14.3,1.9,36.6,20.7,39.1,36.6C92,355.6,91.8,355.8,91.5,355.9
					C91.5,355.9,91.5,355.9,91.5,355.9z"/>
			</g>
			<g id="XMLID_15705_">
				<path id="XMLID_17943_" class="st4" d="M78.7,334.6C78.7,334.6,78.7,334.6,78.7,334.6c-0.3,0-0.5-0.3-0.5-0.5
					c0.9-10.1,4.6-13.9,4.7-14.1c0.2-0.2,0.5-0.2,0.7,0c0.2,0.2,0.2,0.5,0,0.7c0,0-3.6,3.8-4.4,13.5C79.2,334.4,79,334.6,78.7,334.6
					z"/>
			</g>
			<g id="XMLID_15706_">
				<path id="XMLID_17942_" class="st4" d="M63.2,342.7c-0.2,0-0.4-0.1-0.5-0.3c-0.1-0.3,0-0.5,0.3-0.7c0.5-0.2,11.4-4.8,20.9-2.2
					c0.3,0.1,0.4,0.3,0.4,0.6c-0.1,0.3-0.3,0.4-0.6,0.4c-9.2-2.5-20.1,2.1-20.2,2.1C63.3,342.7,63.3,342.7,63.2,342.7z"/>
			</g>
		</g>
	</g>
</g>
<g id="Window">
	<g id="XMLID_15647_">
		<g id="XMLID_15627_">
			<path id="XMLID_15622_" class="st5" d="M90.6,167.8l0,204.1c0,1.1,0.8,2.4,1.7,3l4.7,2.7c1,0.5,2.5,0.5,3.5,0l215.9-124.6
				c1-0.5,1.7-1.9,1.7-3l0-204.1c0-2.8-1.8-6.1-4.1-7.3s-6-1.2-8.4,0.2C277.7,54.8,122.9,144.1,95,160.3
				C92.6,161.7,90.6,165,90.6,167.8z"/>
			<path id="XMLID_15633_" class="st6" d="M102.8,169.8l-10.9-6.3c-0.8,1.4-1.3,2.9-1.3,4.3l0,204.1c0,1.1,0.8,2.5,1.7,3l4.7,2.7
				c1,0.6,2.5,0.6,3.5,0l2.3-1.3L102.8,169.8z"/>
			<path id="XMLID_15626_" class="st6" d="M313.8,43.3L103.1,165c-2.4,1.4-4.3,4.7-4.3,7.5v204.1c0,1.1,0.8,1.5,1.7,1l215.9-124.6
				c1-0.5,1.7-1.9,1.7-3l0-204.1C318.1,43.1,316.2,41.9,313.8,43.3z"/>
			<path id="XMLID_15628_" class="st7" d="M313.8,43.3L103.1,165c-2.4,1.4-4.3,4.7-4.3,7.5v204.1c0,1.1,0.8,1.5,1.7,1l215.9-124.6
				c1-0.5,1.7-1.9,1.7-3l0-204.1C318.1,43.1,316.2,41.9,313.8,43.3z"/>
			<path id="XMLID_15632_" class="st6" d="M318.1,54.9v-9.1c0-2.8-1.9-3.9-4.3-2.5L103.1,165c-2.4,1.4-4.3,4.7-4.3,7.5v9.1
				L318.1,54.9z"/>
		</g>
		<g id="XMLID_15631_">
			<g id="XMLID_15534_">
				<g id="XMLID_15535_">
					<path id="XMLID_15651_" class="st8" d="M309.3,56.3c-0.1,0-0.1,0-0.2,0c-0.2-0.1-0.3-0.3-0.2-0.5l1.5-3.3
						c0.1-0.2,0.3-0.3,0.5-0.2c0.2,0.1,0.3,0.3,0.2,0.5l-1.5,3.3C309.6,56.2,309.5,56.3,309.3,56.3z"/>
				</g>
				<g id="XMLID_15537_">
					<path id="XMLID_15650_" class="st8" d="M309.2,56.5c-0.1,0-0.1,0-0.2,0c-0.1-0.1-0.2-0.2-0.2-0.4L309,54c0-0.2,0.2-0.4,0.4-0.3
						c0.2,0,0.4,0.2,0.3,0.4l-0.1,1.2l0.6-0.5c0.2-0.1,0.4-0.1,0.5,0.1c0.1,0.2,0.1,0.4-0.1,0.5l-1.3,1
						C309.4,56.5,309.3,56.5,309.2,56.5z"/>
				</g>
			</g>
			<g id="XMLID_15644_">
				<g id="XMLID_15646_">
					<path id="XMLID_15649_" class="st8" d="M311.5,51.7c-0.1,0-0.1,0-0.2,0c-0.2-0.1-0.3-0.3-0.2-0.5l1.5-3.3
						c0.1-0.2,0.3-0.3,0.5-0.2c0.2,0.1,0.3,0.3,0.2,0.5l-1.5,3.3C311.8,51.6,311.6,51.7,311.5,51.7z"/>
				</g>
				<g id="XMLID_15645_">
					<path id="XMLID_15648_" class="st8" d="M312.9,50.3C312.9,50.3,312.9,50.3,312.9,50.3c-0.2,0-0.4-0.2-0.4-0.4l0.1-1.2l-0.6,0.5
						c-0.2,0.1-0.4,0.1-0.5-0.1c-0.1-0.2-0.1-0.4,0.1-0.5l1.3-1c0.1-0.1,0.3-0.1,0.4,0c0.1,0.1,0.2,0.2,0.2,0.4l-0.2,2.1
						C313.3,50.2,313.1,50.3,312.9,50.3z"/>
				</g>
			</g>
		</g>
		<path id="XMLID_15629_" class="st8" d="M108.9,166.3c-1.1,0.6-2,2.2-2,3.5c0,1.3,0.9,1.8,2,1.2c1.1-0.6,2-2.2,2-3.5
			C110.9,166.2,110,165.6,108.9,166.3z"/>
		<path id="XMLID_15642_" class="st8" d="M117,161.6c-1.1,0.6-2,2.2-2,3.5c0,1.3,0.9,1.8,2,1.2c1.1-0.6,2-2.2,2-3.5
			C119.1,161.5,118.2,161,117,161.6z"/>
		<path id="XMLID_15643_" class="st8" d="M125.2,156.9c-1.1,0.6-2,2.2-2,3.5c0,1.3,0.9,1.8,2,1.2c1.1-0.6,2-2.2,2-3.5
			C127.2,156.8,126.3,156.3,125.2,156.9z"/>
	</g>
</g>
<g id="Character_1_">
	<g>
		<path id="XMLID_16152_" class="st7" d="M386.2,176.3h22c1.6,0,2.9-1.3,2.9-2.9v-39.1c0-7.7-6.2-13.9-13.9-13.9l0,0
			c-7.7,0-13.9,6.2-13.9,13.9v39.1C383.3,175,384.6,176.3,386.2,176.3z"/>
		<path id="XMLID_16243_" class="st7" d="M408,125.8l3.4-1.8c-0.5-1-1.6-1.3-2.6-0.8C407.9,123.7,407.5,124.9,408,125.8z"/>
		<path id="XMLID_16242_" class="st7" d="M407.8,126.2l3.6,1.3c0.4-1-0.1-2.1-1-2.5C409.3,124.7,408.2,125.2,407.8,126.2z"/>
		<path id="XMLID_16106_" class="st9" d="M381.4,151.7l-10.2-0.3c-0.7-0.6-11.4-12.7-11.4-12.7s-3.9,6.1-3.9,6.5
			c-0.1,0.4,10.5,11.7,11.6,12.9c0.6,0.6,1.1,1.1,2.5,1.2c2.8,0.2,13.1,0.9,13.1,0.9L381.4,151.7z"/>
		<path id="XMLID_15833_" class="st2" d="M395.8,161.5l-16.9-0.7c-1.5-2.1-1.5-7.5,0-9.2l18.7,0.5L395.8,161.5z"/>
		<g>
			<path id="XMLID_37_" class="st2" d="M395.8,161.5l-16.9-0.7c-1.5-2.1-1.5-7.5,0-9.2l18.7,0.5L395.8,161.5z"/>
			<path id="XMLID_38_" class="st10" d="M395.8,161.5l-16.9-0.7c-1.5-2.1-1.5-7.5,0-9.2l18.7,0.5L395.8,161.5z"/>
		</g>
		<path id="XMLID_15734_" class="st9" d="M356.2,134.9c2-0.2,3.3-1.7,3.8-1.3c0.5,0.4,0.3,1.1,0.1,1.4c-0.6,0.6-3,1.7-3,1.7
			s-0.3,1.3-0.5,3.1c-0.2,1.5-0.1,4.6-1.4,5.6c-3.9,3.1-4.9-1.8-4.8-5.2C350.5,136.2,354.1,135.1,356.2,134.9z"/>
		<g id="XMLID_16146_">
			<path id="XMLID_16147_" class="st7" d="M395.1,275.2c0,0.6,0,1-0.5,1.9c-0.6,1.1-2,2.9-3.2,4.2c-1.7,1.8-4.2,4-6.1,5.6
				c-1,0.9-1.1,2.2,0.4,2.7c1.4,0.5,4.7,0.7,8-1.1c1.8-1,4.4-5.5,5.9-6.1c1.7-0.8,2.7-1.2,3.3-2c0.9-1.2,1.1-2.1,0.4-3.5
				c-0.8-1.5-2-3.9-2.5-3.6l0.2,0.5c-0.4,1.2-3.8,2.7-5.5,2.3L395.1,275.2z"/>
		</g>
		<path id="XMLID_16145_" class="st11" d="M393.6,269.2c0.8,2.7,1.4,4.8,1.5,6c0,1,0,1-0.5,1.9c-0.6,1.1-2,2.9-3.2,4.2
			c-0.8,0.9-1.9,1.9-2.9,2.8c-0.1,0.2-0.2,0.3-0.2,0.4c0,0.9,2.3,1.2,3.7,0.8c1.7-0.5,3.1-1.7,4.2-3.2c0.8-1,2.5-3,3.6-4.5
			c0.5-0.6,0.8-1.2,1-1.5c0.4-1,0.3-1.7,0.1-2.1l-0.1-0.2c-0.6-1.9-1-3.8-1.1-5.7"/>
		<path id="XMLID_16144_" class="st11" d="M409.6,277.3c-0.3,1.7-0.4,3.5-0.4,5.3v3.9h-5.8v-6.7c0,0-0.1,0-0.1,0
			c0,0-0.1-1.3-0.3-3.4"/>
		<g id="XMLID_16142_">
			<path id="XMLID_16143_" class="st6" d="M393.6,269.2c-3.2-10.4-10.3-28.9-11.3-32.1c-1-3.5,0.2-33.8,1.1-43.5l30.2-1.6
				c2.3,9.8,0.1,23.1-0.7,31.4c-0.8,8.1-1.7,17.5-1.7,17.5s2.4,8.2,1.7,14.8c-0.4,4.1-2.3,16.3-3.2,21.6c-2.2,0.6-4.4,0.3-6.6-0.9
				c-0.4-4.7-1.1-13.2-1.7-18.7c-1-8.4-1.3-14.5-2.2-19.3c-1.1-6.1-1.5-29.9-1.5-29.9l-3.5,27.1c0,0,1.8,3.1,3.1,8
				c1,3.8,2.1,18.3,2.5,24.5C398.2,269.1,396.1,269.5,393.6,269.2z"/>
		</g>
		<path id="XMLID_16141_" class="st7" d="M397.6,208.4c0,0-5.5-1.9-8.7-4.8c0,0,2.1,3.7,6.5,5.7l0,15.8L397.6,208.4"/>
		<g id="XMLID_16139_">
			<path id="XMLID_16140_" class="st2" d="M402,152.2c0,0,8.2,0.9,9.2,1.4c-5,5.5,0.3,10,0.3,10l-4.7,16.7c3.3,4.2,6.1,7.5,6.9,12.5
				c-3.5,6.2-23.2,7-30.5,2.4c0.6-8.6,2-14.8,1.6-17.4c-3.4-10.6-2.4-12.8-2.1-15.3c0.6-4.7,5.3-8.9,8-10.6c0,0,2,0,2.5,0L402,152.2
				z"/>
		</g>
		<g id="XMLID_16135_">
			<path id="XMLID_16136_" class="st7" d="M403.3,283.6v-0.8c-0.2,1.3-1.8,5.2-4.1,7.3c-1.8,1.7-4.3,3.6-5,5.5
				c-0.7,1.9,2.9,2.7,5.3,2.5c2.8-0.3,4.9-1.9,5.9-3.1c1.5-1.7,1.5-2.9,2.2-3.9c0.7-0.9,2.3-2,2.7-3.1c0.2-0.6,0-1.9-0.3-3
				c-0.3-1-0.6-2.2-0.9-2.1c0,0.1,0,0.6,0,0.6c-0.4,0.5-1.6,0.9-2.9,1C405.4,284.4,403.3,284.2,403.3,283.6z"/>
		</g>
		<g id="XMLID_16133_">
			<path id="XMLID_16134_" class="st11" d="M409.1,283.4c-0.4,0.5-1.6,0.9-2.9,1c-0.8,0-2.9-0.1-2.9-0.8v-0.8
				c-0.2,1.3-1.8,5.2-4.1,7.3c-0.4,0.4-0.9,0.8-1.4,1.2c-1,1.1-0.7,2,1.6,2.2c2.3,0.2,4.3-1.2,6-3.3
				C407.1,288,409.1,283.4,409.1,283.4z"/>
		</g>
		<g id="XMLID_16131_">
			<path id="XMLID_16132_" class="st11" d="M387.9,127.2c-1.5,0.9-3.3,4.6-3.1,12.3c0.2,6.6,2.3,8.2,3.4,8.7
				c1.1,0.5,3.1,0.2,5.1-0.2v3.9c0,0-2.8,3.2-2.6,5c0.2,1.8,4,2.2,6.6,0.5c2.6-1.8,4.8-5.2,4.8-5.2l0-9.1c0,0,1.2,1.1,3.2-0.6
				c1.7-1.4,2.2-3.9,0.9-5.2c-1.3-1.3-3.7-1-4.6,0.9c0,0-1.1-3.1-5.7-4.6C391.6,132.3,389.3,130.7,387.9,127.2z"/>
		</g>
		<g id="XMLID_16129_">
			<path id="XMLID_16130_" class="st7" d="M392.1,137.8c0,0.5,0.3,0.9,0.8,0.9c0.5,0,0.8-0.3,0.9-0.8c0-0.5-0.3-0.9-0.8-0.9
				C392.5,137,392.1,137.4,392.1,137.8z"/>
		</g>
		<g id="XMLID_16127_">
			<path id="XMLID_16128_" class="st9" d="M391.9,143.4L390,144c0.2,0.5,0.7,0.9,1.2,0.7C391.7,144.5,392,143.9,391.9,143.4z"/>
		</g>
		<g id="XMLID_16125_">
			<path id="XMLID_16126_" class="st7" d="M385.3,135.3l1.7-1.2c-0.3-0.5-0.9-0.6-1.4-0.3C385.1,134.2,385,134.8,385.3,135.3z"/>
		</g>
		<g id="XMLID_16123_">
			<path id="XMLID_16124_" class="st7" d="M394.5,135.9l-1.7-1.2c0.3-0.5,0.9-0.6,1.4-0.3C394.7,134.8,394.8,135.4,394.5,135.9z"/>
		</g>
		<g id="XMLID_16121_">
			<path id="XMLID_16122_" class="st7" d="M385.7,137.2c0,0.5,0.3,0.9,0.8,0.9c0.5,0,0.8-0.3,0.9-0.8c0-0.5-0.3-0.9-0.8-0.9
				C386.1,136.4,385.7,136.8,385.7,137.2z"/>
		</g>
		<g id="XMLID_16119_">
			<polygon id="XMLID_16120_" class="st9" points="389.6,136.8 389.5,141.7 386.9,140.9 			"/>
		</g>
		<g id="XMLID_16117_">
			<path id="XMLID_16118_" class="st9" d="M393.3,148c2.1-0.3,6.5-1.5,7.1-3.2c0,0-0.2,1.1-1.5,2.2c-1.3,1.1-5.6,2.4-5.6,2.4V148z"
				/>
		</g>
		<g>
			<g id="XMLID_16115_">
				<polygon id="XMLID_16116_" class="st2" points="408.9,172.9 402.4,183.1 406.8,180.3 				"/>
			</g>
			<g id="XMLID_35_" class="st3">
				<polygon id="XMLID_36_" points="408.9,172.9 402.4,183.1 406.8,180.3 				"/>
			</g>
		</g>
	</g>
	<g>
		<g id="XMLID_15520_">
			<path id="XMLID_15525_" class="st1" d="M117.3,389.3l-0.6-0.3c-1-0.6-1.7-1.9-1.7-3l0-169.5c0-1.1,0.8-2.4,1.7-3L227,149.7
				c1-0.6,1.7-1.9,1.7-3l0-10.1c0-1.1,0.8-2.4,1.7-3l49.3-28.5c1-0.6,2.5-0.6,3.5,0l0.6,0.3c1,0.6,1.7,1.9,1.7,3l0,5.4
				c0,1.1,0.8,1.6,1.7,1l45.3-26.1c1-0.6,2.5-0.6,3.5,0l0.6,0.3c1,0.6,1.7,1.9,1.7,3l0,169.5c0,1.1-0.8,2.4-1.7,3L120.8,389.3
				C119.8,389.8,118.3,389.8,117.3,389.3z"/>
			<path id="XMLID_15522_" class="st12" d="M119.1,388.3l0-169.5c0-1.1,0.8-2.4,1.7-3L231.1,152c1-0.6,1.7-1.9,1.7-3l0-10.1
				c0-1.1,0.8-2.4,1.7-3l49.3-28.5c1-0.6,1.7-0.1,1.7,1l0,10.1c0,1.1,0.8,1.6,1.7,1l49.3-28.5c1-0.6,1.7-0.1,1.7,1l0,169.5
				c0,1.1-0.8,2.4-1.7,3L120.8,389.3C119.8,389.8,119.1,389.4,119.1,388.3z"/>
			<g id="XMLID_15428_">
				<path id="XMLID_15625_" class="st6" d="M115,227v1.5l4.1,2.3l219.3-126.6V92.1c0-1.1-0.8-2.4-1.7-3l-0.6-0.3
					c-1-0.6-2.5-0.6-3.5,0l-45.3,26.1c-1,0.6-1.7,0.1-1.7-1v-5.4c0-1.1-0.8-2.4-1.7-3l-0.6-0.3c-1-0.6-2.5-0.6-3.5,0l-49.3,28.5
					c-1,0.6-1.7,1.9-1.7,3l0,10.1c0,1.1-0.8,2.4-1.7,3l-110.3,63.7c-1,0.6-1.7,1.9-1.7,3V227z"/>
				<path id="XMLID_15409_" class="st8" d="M115,227v1.5l4.1,2.3l219.3-126.6V92.1c0-1.1-0.8-2.4-1.7-3l-0.6-0.3
					c-1-0.6-2.5-0.6-3.5,0l-45.3,26.1c-1,0.6-1.7,0.1-1.7-1v-5.4c0-1.1-0.8-2.4-1.7-3l-0.6-0.3c-1-0.6-2.5-0.6-3.5,0l-49.3,28.5
					c-1,0.6-1.7,1.9-1.7,3l0,10.1c0,1.1-0.8,2.4-1.7,3l-110.3,63.7c-1,0.6-1.7,1.9-1.7,3V227z"/>
				<path id="XMLID_15624_" class="st1" d="M236.9,153.4l0-14.1l-7.6-4.4c-0.3,0.5-0.5,1.2-0.5,1.7l0,10.1c0,0.6-0.2,1.2-0.5,1.7
					L236.9,153.4z"/>
				<path id="XMLID_15623_" class="st1" d="M123.1,219.1l-7.6-4.4c-0.3,0.5-0.5,1.2-0.5,1.7V227v1.5l4.1,2.3L123.1,219.1z"/>
				<path id="XMLID_15620_" class="st13" d="M231.1,152l-110.3,63.7c-1,0.6-1.7,1.9-1.7,3v12.1l219.3-126.6V92.1
					c0-1.1-0.8-1.6-1.7-1l-49.3,28.5c-1,0.6-1.7,0.1-1.7-1v-10.1c0-1.1-0.8-1.6-1.7-1L234.5,136c-1,0.6-1.7,1.9-1.7,3l0,10.1
					C232.8,150.2,232,151.5,231.1,152z"/>
				<g id="XMLID_15599_">
					<g id="XMLID_15616_" class="st14">
						<path id="XMLID_15619_" class="st1" d="M129.8,216.7l-3.6,2.1l1.4-2.3c0.1-0.2,0.1-0.5-0.2-0.7c-0.2-0.1-0.5-0.1-0.7,0.2
							l-2.3,4c-0.1,0.1-0.1,0.3-0.1,0.4c0,0.1,0.1,0.2,0.2,0.3l2.3,1.3c0.1,0,0.2,0.1,0.2,0.1c0.2,0,0.3-0.1,0.4-0.3
							c0.1-0.2,0-0.5-0.2-0.7l-1.5-0.9l4.4-2.6c0.2-0.1,0.3-0.4,0.2-0.7C130.4,216.6,130.1,216.5,129.8,216.7z"/>
						<path id="XMLID_15618_" class="st1" d="M138.1,212.6c0-0.1-0.1-0.2-0.2-0.3l-2.3-1.3c-0.2-0.1-0.5-0.1-0.7,0.2
							c-0.1,0.2,0,0.5,0.2,0.7l1.5,0.9l-4.4,2.6c-0.2,0.1-0.3,0.4-0.2,0.7c0.1,0.2,0.3,0.3,0.4,0.3c0.1,0,0.2,0,0.3-0.1l3.6-2.1
							l-1.4,2.3c-0.1,0.2-0.1,0.5,0.2,0.7c0.1,0,0.2,0.1,0.3,0.1c0.2,0,0.3-0.1,0.4-0.2l2.3-4C138.1,212.9,138.1,212.7,138.1,212.6z
							"/>
					</g>
					<g id="XMLID_15613_">
						<path id="XMLID_15617_" class="st1" d="M145.6,206.1l158.2-91.3c1.2-0.7,2.2-0.2,2.2,1.1c0,1.3-1,2.9-2.2,3.6l-158.2,91.3
							c-1.2,0.7-2.2,0.2-2.2-1.1C143.4,208.4,144.4,206.8,145.6,206.1z"/>
					</g>
					<g id="XMLID_15604_">
						<path id="XMLID_15614_" class="st8" d="M312,110c1.1-0.6,2-0.1,2,1.2s-0.9,2.9-2,3.5c-1.1,0.6-2,0.1-2-1.2
							C310,112.2,310.9,110.7,312,110z"/>
					</g>
					<g id="XMLID_15602_">
						<path id="XMLID_15605_" class="st8" d="M320.1,105.3c1.1-0.6,2-0.1,2,1.2c0,1.3-0.9,2.9-2,3.5c-1.1,0.6-2,0.1-2-1.2
							C318.1,107.5,319,106,320.1,105.3z"/>
					</g>
					<g id="XMLID_15601_">
						<path id="XMLID_15603_" class="st8" d="M328.3,100.6c1.1-0.6,2-0.1,2,1.2c0,1.3-0.9,2.9-2,3.5c-1.1,0.6-2,0.1-2-1.2
							C326.2,102.9,327.1,101.3,328.3,100.6z"/>
					</g>
				</g>
				<g id="XMLID_15429_" class="st14">
					<g id="XMLID_15597_">
						<path id="XMLID_15600_" class="st1" d="M245,137c0,1.3,1,1.8,2.2,1.1l24.1-13.9c1.2-0.7,2.2-2.3,2.2-3.6c0-1.3-1-1.8-2.2-1.1
							l-24.1,13.9C246,134.1,245,135.7,245,137z"/>
					</g>
					<g id="XMLID_15594_">
						<path id="XMLID_15598_" class="st2" d="M238.9,138.2c-1.1,0.6-2,2.2-2,3.5c0,1.3,0.9,1.8,2,1.2c1.1-0.6,2-2.2,2-3.5
							C240.9,138,240,137.5,238.9,138.2z"/>
					</g>
					<g id="XMLID_15430_">
						<g id="XMLID_15564_">
							<path id="XMLID_15567_" class="st1" d="M281.5,118.7c-0.1,0-0.2,0-0.3-0.1l-4.1-2.3c-0.2-0.1-0.3-0.4-0.2-0.7
								c0.1-0.2,0.4-0.3,0.7-0.2l4.1,2.3c0.2,0.1,0.3,0.4,0.2,0.7C281.9,118.6,281.7,118.7,281.5,118.7z"/>
						</g>
						<g id="XMLID_15431_">
							<path id="XMLID_15563_" class="st1" d="M277.5,121.1c-0.1,0-0.2,0-0.3-0.1c-0.2-0.1-0.3-0.4-0.2-0.7l4.1-7
								c0.1-0.2,0.4-0.3,0.7-0.2c0.2,0.1,0.3,0.4,0.2,0.7l-4.1,7C277.8,121,277.7,121.1,277.5,121.1z"/>
						</g>
					</g>
				</g>
			</g>
		</g>
		<g id="XMLID_15512_">
			<path id="XMLID_15493_" class="st1" d="M129.5,396.3l-0.6-0.3c-1-0.6-1.7-1.9-1.7-3l0-169.5c0-1.1,0.8-2.4,1.7-3l57.5-33.2
				c1-0.6,1.7-1.9,1.7-3l0-10.1c0-1.1,0.8-2.4,1.7-3l49.3-28.5c1-0.6,2.5-0.6,3.5,0l0.6,0.3c1,0.6,1.7,1.9,1.7,3v5.4
				c0,1.1,0.8,1.6,1.7,1l98.1-56.6c1-0.6,2.5-0.6,3.5,0l0.6,0.3c1,0.6,1.7,1.9,1.7,3l0,169.5c0,1.1-0.8,2.4-1.7,3L133,396.3
				C132,396.9,130.5,396.9,129.5,396.3z"/>
			<path id="XMLID_15511_" class="st8" d="M131.2,395.3l0-169.5c0-1.1,0.8-2.4,1.7-3l57.5-33.2c1-0.6,1.7-1.9,1.7-3l0-10.1
				c0-1.1,0.8-2.4,1.7-3l49.3-28.5c1-0.6,1.7-0.1,1.7,1v10.1c0,1.1,0.8,1.6,1.7,1l102.1-59c1-0.6,1.7-0.1,1.7,1l0,169.5
				c0,1.1-0.8,2.4-1.7,3L133,396.3C132,396.9,131.2,396.4,131.2,395.3z"/>
		</g>
		<g id="XMLID_30_">
			<path id="XMLID_438_" class="st0" d="M127.2,234v1.5l4.1,2.3l219.3-126.6V99.1c0-1.1-0.8-2.4-1.7-3l-0.6-0.3
				c-1-0.6-2.5-0.6-3.5,0l-98.1,56.6c-1,0.6-1.7,0.1-1.7-1V146c0-1.1-0.8-2.4-1.7-3l-0.6-0.3c-1-0.6-2.5-0.6-3.5,0l-49.3,28.5
				c-1,0.6-1.7,1.9-1.7,3l0,10.1c0,1.1-0.8,2.4-1.7,3l-57.5,33.2c-1,0.6-1.7,1.9-1.7,3V234z"/>
			<path id="XMLID_441_" class="st1" d="M196.2,190.9l0-14.1l-7.6-4.4c-0.3,0.5-0.5,1.2-0.5,1.7l0,10.1c0,0.6-0.2,1.2-0.5,1.7
				L196.2,190.9z"/>
			<path id="XMLID_440_" class="st1" d="M135.3,226.1l-7.6-4.4c-0.3,0.5-0.5,1.2-0.5,1.7V234v1.5l4.1,2.3L135.3,226.1z"/>
			<path id="XMLID_434_" class="st1" d="M190.4,189.6L133,222.8c-1,0.6-1.7,1.9-1.7,3v12.1l219.3-126.6V99.1c0-1.1-0.8-1.6-1.7-1
				l-102.1,59c-1,0.6-1.7,0.1-1.7-1V146c0-1.1-0.8-1.6-1.7-1l-49.3,28.5c-1,0.6-1.7,1.9-1.7,3l0,10.1
				C192.2,187.7,191.4,189,190.4,189.6z"/>
			<g id="XMLID_925_">
				<g id="XMLID_15436_" class="st14">
					<path id="XMLID_15595_" class="st1" d="M142,223.7l-3.6,2.1l1.4-2.3c0.1-0.2,0.1-0.5-0.2-0.7c-0.2-0.1-0.5-0.1-0.7,0.2l-2.3,4
						c-0.1,0.1-0.1,0.3-0.1,0.4c0,0.1,0.1,0.2,0.2,0.3l2.3,1.3c0.1,0,0.2,0.1,0.2,0.1c0.2,0,0.3-0.1,0.4-0.3c0.1-0.2,0-0.5-0.2-0.7
						l-1.5-0.9l4.4-2.6c0.2-0.1,0.3-0.4,0.2-0.7C142.5,223.7,142.2,223.6,142,223.7z"/>
					<path id="XMLID_15596_" class="st1" d="M150.3,219.7c0-0.1-0.1-0.2-0.2-0.3l-2.3-1.3c-0.2-0.1-0.5-0.1-0.7,0.2
						c-0.1,0.2,0,0.5,0.2,0.7l1.5,0.9l-4.4,2.6c-0.2,0.1-0.3,0.4-0.2,0.7c0.1,0.2,0.3,0.3,0.4,0.3c0.1,0,0.2,0,0.3-0.1l3.6-2.1
						l-1.4,2.3c-0.1,0.2-0.1,0.5,0.2,0.7c0.1,0,0.2,0.1,0.3,0.1c0.2,0,0.3-0.1,0.4-0.2l2.3-4C150.3,219.9,150.3,219.8,150.3,219.7z"
						/>
				</g>
				<g id="XMLID_15403_">
					<path id="XMLID_16498_" class="st1" d="M157.8,213.1l158.2-91.3c1.2-0.7,2.2-0.2,2.2,1.1c0,1.3-1,2.9-2.2,3.6l-158.2,91.3
						c-1.2,0.7-2.2,0.2-2.2-1.1C155.6,215.4,156.6,213.8,157.8,213.1z"/>
				</g>
				<g id="XMLID_15394_">
					<path id="XMLID_16492_" class="st8" d="M324.2,117c1.1-0.6,2-0.1,2,1.2c0,1.3-0.9,2.9-2,3.5c-1.1,0.6-2,0.1-2-1.2
						C322.2,119.3,323.1,117.7,324.2,117z"/>
				</g>
				<g id="XMLID_15331_">
					<path id="XMLID_16484_" class="st8" d="M332.3,112.4c1.1-0.6,2-0.1,2,1.2c0,1.3-0.9,2.9-2,3.5c-1.1,0.6-2,0.1-2-1.2
						C330.3,114.6,331.2,113,332.3,112.4z"/>
				</g>
				<g id="XMLID_15330_">
					<path id="XMLID_16483_" class="st8" d="M340.4,107.7c1.1-0.6,2-0.1,2,1.2c0,1.3-0.9,2.9-2,3.5c-1.1,0.6-2,0.1-2-1.2
						C338.4,109.9,339.3,108.3,340.4,107.7z"/>
				</g>
			</g>
			<g id="XMLID_65_" class="st14">
				<g id="XMLID_447_">
					<path id="XMLID_16482_" class="st1" d="M204.4,174.5c0,1.3,1,1.8,2.2,1.1l24.1-13.9c1.2-0.7,2.2-2.3,2.2-3.6
						c0-1.3-1-1.8-2.2-1.1l-24.1,13.9C205.3,171.6,204.4,173.2,204.4,174.5z"/>
				</g>
				<g id="XMLID_446_">
					<path id="XMLID_16481_" class="st2" d="M198.3,175.7c-1.1,0.6-2,2.2-2,3.5s0.9,1.8,2,1.2c1.1-0.6,2-2.2,2-3.5
						C200.3,175.6,199.4,175,198.3,175.7z"/>
				</g>
				<g id="XMLID_131_">
					<g id="XMLID_444_">
						<path id="XMLID_15329_" class="st1" d="M240.9,156.2c-0.1,0-0.2,0-0.3-0.1l-4.1-2.3c-0.2-0.1-0.3-0.4-0.2-0.7
							c0.1-0.2,0.4-0.3,0.7-0.2l4.1,2.3c0.2,0.1,0.3,0.4,0.2,0.7C241.3,156.2,241.1,156.2,240.9,156.2z"/>
					</g>
					<g id="XMLID_443_">
						<path id="XMLID_926_" class="st1" d="M236.9,158.6c-0.1,0-0.2,0-0.3-0.1c-0.2-0.1-0.3-0.4-0.2-0.7l4.1-7
							c0.1-0.2,0.4-0.3,0.7-0.2c0.2,0.1,0.3,0.4,0.2,0.7l-4.1,7C237.2,158.5,237,158.6,236.9,158.6z"/>
					</g>
				</g>
			</g>
		</g>
		<path id="XMLID_15531_" class="st1" d="M141.7,403.3l-0.6-0.3c-1-0.6-1.7-1.9-1.7-3l0-169.5c0-1.1,0.8-2.4,1.7-3l4.7-2.7
			c1-0.6,1.7-1.9,1.7-3l0-10.1c0-1.1,0.8-2.4,1.7-3l49.3-28.5c1-0.6,2.5-0.6,3.5,0l0.6,0.3c1,0.6,1.7,1.9,1.7,3l0,5.4
			c0,1.1,0.8,1.6,1.7,1L357,102.8c1-0.6,2.5-0.6,3.5,0l0.6,0.3c1,0.6,1.7,1.9,1.7,3l0,169.5c0,1.1-0.8,2.4-1.7,3L145.2,403.3
			C144.2,403.9,142.7,403.9,141.7,403.3z"/>
		<path id="XMLID_15530_" class="st8" d="M143.4,402.3l0-169.5c0-1.1,0.8-2.4,1.7-3l4.7-2.7c1-0.6,1.7-1.9,1.7-3l0-10.1
			c0-1.1,0.8-2.4,1.7-3l49.3-28.5c1-0.6,1.7-0.1,1.7,1l0,10.1c0,1.1,0.8,1.6,1.7,1l155-89.5c1-0.6,1.7-0.1,1.7,1l0,169.5
			c0,1.1-0.8,2.4-1.7,3L145.2,403.3C144.2,403.9,143.4,403.4,143.4,402.3z"/>
		<g id="XMLID_15747_">
			<polygon id="XMLID_16503_" class="st2" points="143.4,244.9 143.4,277.7 362.8,151 362.8,118.2 			"/>
			<g>
				<polygon id="XMLID_16507_" class="st2" points="139.4,242.5 139.4,275.3 143.4,277.7 143.4,244.9 				"/>
				<polygon id="XMLID_1_" class="st3" points="139.4,242.5 139.4,275.3 143.4,277.7 143.4,244.9 				"/>
			</g>
			<g id="XMLID_937_">
				<path id="XMLID_16505_" class="st4" d="M214.7,217.8l71-41l0,4.7l-71,41c-1.2,0.7-2.2,0.2-2.2-1.1
					C212.5,220.1,213.5,218.5,214.7,217.8z"/>
				<path id="XMLID_16506_" class="st4" d="M291.7,173.3l-6.1,3.5l0,4.7c0,0,5-2.9,6.1-3.5c1.1-0.6,2-2.2,2-3.5
					C293.7,173.2,292.8,172.7,291.7,173.3z"/>
			</g>
		</g>
		<g>
			<g id="XMLID_941_">
				<path id="XMLID_938_" class="st2" d="M155.6,280c2.2-1.3,4.1-0.2,4.1,2.3s-1.8,5.7-4.1,7c-2.2,1.3-4.1,0.2-4.1-2.3
					C151.6,284.5,153.4,281.3,155.6,280z"/>
				<path id="XMLID_939_" class="st2" d="M165.9,274.1l24.1-13.9c1.2-0.7,2.2-0.2,2.2,1.1c0,1.3-1,2.9-2.2,3.6l-24.1,13.9
					c-1.2,0.7-2.2,0.2-2.2-1.1C163.7,276.4,164.7,274.8,165.9,274.1z"/>
				<g>
					<path id="XMLID_940_" class="st2" d="M163.7,283.6c0-0.6,0.5-1.5,1.1-1.8l14.1-8.1c0.6-0.3,1.1-0.1,1.1,0.5
						c0,0.6-0.5,1.5-1.1,1.8l-14.1,8.1C164.2,284.4,163.7,284.2,163.7,283.6z"/>
					<path id="XMLID_2_" class="st15" d="M163.7,283.6c0-0.6,0.5-1.5,1.1-1.8l14.1-8.1c0.6-0.3,1.1-0.1,1.1,0.5
						c0,0.6-0.5,1.5-1.1,1.8l-14.1,8.1C164.2,284.4,163.7,284.2,163.7,283.6z"/>
				</g>
			</g>
			<g id="XMLID_3_">
				<path id="XMLID_7_" class="st2" d="M155.6,298c2.2-1.3,4.1-0.2,4.1,2.3s-1.8,5.7-4.1,7c-2.2,1.3-4.1,0.2-4.1-2.3
					C151.6,302.5,153.4,299.3,155.6,298z"/>
				<path id="XMLID_6_" class="st2" d="M165.9,292.1l24.1-13.9c1.2-0.7,2.2-0.2,2.2,1.1c0,1.3-1,2.9-2.2,3.6l-24.1,13.9
					c-1.2,0.7-2.2,0.2-2.2-1.1C163.7,294.4,164.7,292.8,165.9,292.1z"/>
				<g>
					<path id="XMLID_5_" class="st2" d="M163.7,301.6c0-0.6,0.5-1.5,1.1-1.8l14.1-8.1c0.6-0.3,1.1-0.1,1.1,0.5
						c0,0.6-0.5,1.5-1.1,1.8l-14.1,8.1C164.2,302.4,163.7,302.2,163.7,301.6z"/>
					<path id="XMLID_4_" class="st15" d="M163.7,301.6c0-0.6,0.5-1.5,1.1-1.8l14.1-8.1c0.6-0.3,1.1-0.1,1.1,0.5
						c0,0.6-0.5,1.5-1.1,1.8l-14.1,8.1C164.2,302.4,163.7,302.2,163.7,301.6z"/>
				</g>
			</g>
			<g id="XMLID_8_">
				<path id="XMLID_12_" class="st2" d="M155.6,318c2.2-1.3,4.1-0.2,4.1,2.3s-1.8,5.7-4.1,7c-2.2,1.3-4.1,0.2-4.1-2.3
					C151.6,322.5,153.4,319.3,155.6,318z"/>
				<path id="XMLID_11_" class="st2" d="M165.9,312.1l24.1-13.9c1.2-0.7,2.2-0.2,2.2,1.1c0,1.3-1,2.9-2.2,3.6l-24.1,13.9
					c-1.2,0.7-2.2,0.2-2.2-1.1C163.7,314.4,164.7,312.8,165.9,312.1z"/>
				<g>
					<path id="XMLID_10_" class="st2" d="M163.7,321.6c0-0.6,0.5-1.5,1.1-1.8l14.1-8.1c0.6-0.3,1.1-0.1,1.1,0.5
						c0,0.6-0.5,1.5-1.1,1.8l-14.1,8.1C164.2,322.4,163.7,322.2,163.7,321.6z"/>
					<path id="XMLID_9_" class="st15" d="M163.7,321.6c0-0.6,0.5-1.5,1.1-1.8l14.1-8.1c0.6-0.3,1.1-0.1,1.1,0.5
						c0,0.6-0.5,1.5-1.1,1.8l-14.1,8.1C164.2,322.4,163.7,322.2,163.7,321.6z"/>
				</g>
			</g>
			<g id="XMLID_13_">
				<path id="XMLID_17_" class="st2" d="M155.6,350c2.2-1.3,4.1-0.2,4.1,2.3s-1.8,5.7-4.1,7c-2.2,1.3-4.1,0.2-4.1-2.3
					C151.6,354.5,153.4,351.3,155.6,350z"/>
				<path id="XMLID_16_" class="st2" d="M165.9,344.1l24.1-13.9c1.2-0.7,2.2-0.2,2.2,1.1c0,1.3-1,2.9-2.2,3.6l-24.1,13.9
					c-1.2,0.7-2.2,0.2-2.2-1.1C163.7,346.4,164.7,344.8,165.9,344.1z"/>
				<g>
					<path id="XMLID_15_" class="st2" d="M163.7,353.6c0-0.6,0.5-1.5,1.1-1.8l14.1-8.1c0.6-0.3,1.1-0.1,1.1,0.5
						c0,0.6-0.5,1.5-1.1,1.8l-14.1,8.1C164.2,354.4,163.7,354.2,163.7,353.6z"/>
					<path id="XMLID_14_" class="st15" d="M163.7,353.6c0-0.6,0.5-1.5,1.1-1.8l14.1-8.1c0.6-0.3,1.1-0.1,1.1,0.5
						c0,0.6-0.5,1.5-1.1,1.8l-14.1,8.1C164.2,354.4,163.7,354.2,163.7,353.6z"/>
				</g>
			</g>
			<g id="XMLID_18_">
				<path id="XMLID_22_" class="st2" d="M155.6,367c2.2-1.3,4.1-0.2,4.1,2.3s-1.8,5.7-4.1,7c-2.2,1.3-4.1,0.2-4.1-2.3
					C151.6,371.5,153.4,368.3,155.6,367z"/>
				<path id="XMLID_21_" class="st2" d="M165.9,361.1l24.1-13.9c1.2-0.7,2.2-0.2,2.2,1.1c0,1.3-1,2.9-2.2,3.6l-24.1,13.9
					c-1.2,0.7-2.2,0.2-2.2-1.1C163.7,363.4,164.7,361.8,165.9,361.1z"/>
				<g>
					<path id="XMLID_20_" class="st2" d="M163.7,370.6c0-0.6,0.5-1.5,1.1-1.8l14.1-8.1c0.6-0.3,1.1-0.1,1.1,0.5
						c0,0.6-0.5,1.5-1.1,1.8l-14.1,8.1C164.2,371.4,163.7,371.2,163.7,370.6z"/>
					<path id="XMLID_19_" class="st15" d="M163.7,370.6c0-0.6,0.5-1.5,1.1-1.8l14.1-8.1c0.6-0.3,1.1-0.1,1.1,0.5
						c0,0.6-0.5,1.5-1.1,1.8l-14.1,8.1C164.2,371.4,163.7,371.2,163.7,370.6z"/>
				</g>
			</g>
			<path id="XMLID_15799_" class="st1" d="M147.5,345v0.1c0,0.3,0.2,0.5,0.5,0.3l23.3-13.5c0.3-0.2,0.5-0.6,0.5-0.9v-0.1
				c0-0.3-0.2-0.5-0.5-0.3L148,344.1C147.7,344.2,147.5,344.6,147.5,345z"/>
		</g>
		<g>
			<path id="XMLID_942_" class="st2" d="M206.5,250.6l109.4-63.2c1.2-0.7,2.2-0.1,2.2,1.3v41.9c0,1.4-1,3.1-2.2,3.8l-109.4,63.2
				c-1.2,0.7-2.2,0.1-2.2-1.3v-41.9C204.4,253,205.3,251.3,206.5,250.6z"/>
			<g id="XMLID_948_">
				<path id="XMLID_15759_" class="st12" d="M212.5,254.2c0,1.3,1,1.8,2.2,1.1l26.3-15.2c1.2-0.7,2.2-2.3,2.2-3.6
					c0-1.3-1-1.8-2.2-1.1l-26.3,15.2C213.5,251.3,212.5,252.9,212.5,254.2z"/>
				<path id="XMLID_15757_" class="st12" d="M245.9,234.9c0,1.3,1,1.8,2.2,1.1l26.3-15.2c1.2-0.7,2.2-2.3,2.2-3.6
					c0-1.3-1-1.8-2.2-1.1l-26.3,15.2C246.9,232,245.9,233.6,245.9,234.9z"/>
				<path id="XMLID_15756_" class="st12" d="M279.4,215.6c0,1.3,1,1.8,2.2,1.1l26.3-15.2c1.2-0.7,2.2-2.3,2.2-3.6
					c0-1.3-1-1.8-2.2-1.1L281.5,212C280.4,212.7,279.4,214.3,279.4,215.6z"/>
			</g>
			<g id="XMLID_947_">
				<path id="XMLID_15741_" class="st12" d="M212.5,287.1c0,1.3,1,1.8,2.2,1.1l93.2-53.8c1.2-0.7,2.2-2.3,2.2-3.6
					c0-1.3-1-1.8-2.2-1.1l-93.2,53.8C213.5,284.2,212.5,285.8,212.5,287.1z"/>
			</g>
			<path id="XMLID_15753_" class="st12" d="M214.2,260.3l94-54.3c1-0.6,1.7-0.1,1.7,1l0,14.8c0,1.1-0.8,2.4-1.7,3l-94,54.3
				c-1,0.6-1.7,0.1-1.7-1l0-14.8C212.5,262.2,213.3,260.8,214.2,260.3z"/>
		</g>
		<g>
			<path id="XMLID_31_" class="st2" d="M206.5,306.6l109.4-63.2c1.2-0.7,2.2-0.1,2.2,1.3v41.9c0,1.4-1,3.1-2.2,3.8l-109.4,63.2
				c-1.2,0.7-2.2,0.1-2.2-1.3v-41.9C204.4,309,205.3,307.3,206.5,306.6z"/>
			<g id="XMLID_26_">
				<path id="XMLID_29_" class="st12" d="M212.5,310.2c0,1.3,1,1.8,2.2,1.1l26.3-15.2c1.2-0.7,2.2-2.3,2.2-3.6c0-1.3-1-1.8-2.2-1.1
					l-26.3,15.2C213.5,307.3,212.5,308.9,212.5,310.2z"/>
				<path id="XMLID_28_" class="st12" d="M245.9,290.9c0,1.3,1,1.8,2.2,1.1l26.3-15.2c1.2-0.7,2.2-2.3,2.2-3.6c0-1.3-1-1.8-2.2-1.1
					l-26.3,15.2C246.9,288,245.9,289.6,245.9,290.9z"/>
				<path id="XMLID_27_" class="st12" d="M279.4,271.6c0,1.3,1,1.8,2.2,1.1l26.3-15.2c1.2-0.7,2.2-2.3,2.2-3.6c0-1.3-1-1.8-2.2-1.1
					L281.5,268C280.4,268.7,279.4,270.3,279.4,271.6z"/>
			</g>
			<g id="XMLID_24_">
				<path id="XMLID_25_" class="st12" d="M212.5,343.1c0,1.3,1,1.8,2.2,1.1l93.2-53.8c1.2-0.7,2.2-2.3,2.2-3.6c0-1.3-1-1.8-2.2-1.1
					l-93.2,53.8C213.5,340.2,212.5,341.8,212.5,343.1z"/>
			</g>
			<path id="XMLID_23_" class="st12" d="M214.2,316.3l94-54.3c1-0.6,1.7-0.1,1.7,1l0,14.8c0,1.1-0.8,2.4-1.7,3l-94,54.3
				c-1,0.6-1.7,0.1-1.7-1l0-14.8C212.5,318.2,213.3,316.8,214.2,316.3z"/>
		</g>
		<path id="XMLID_15750_" class="st2" d="M352.5,166.4l-24.1,13.9c-1.2,0.7-2.2,2.4-2.2,3.8v23.1c0,1.4,1,1.9,2.2,1.2l24.1-13.9
			c1.2-0.7,2.2-2.4,2.2-3.8v-23.1C354.7,166.2,353.7,165.7,352.5,166.4z"/>
		<path id="XMLID_15796_" class="st12" d="M333.3,182.2c1.6-1,3-0.2,3,1.7c0,1.9-1.3,4.2-3,5.2c-1.6,1-3,0.2-3-1.7
			C330.3,185.4,331.6,183.1,333.3,182.2z"/>
		<path id="XMLID_15797_" class="st12" d="M338.4,182.7c0-0.6,0.5-1.5,1.1-1.8l10-5.8c0.6-0.3,1.1-0.1,1.1,0.5
			c0,0.6-0.5,1.5-1.1,1.8l-10,5.8C338.9,183.6,338.4,183.4,338.4,182.7z"/>
		<path id="XMLID_15798_" class="st12" d="M331.4,192.6l18.1-10.5c0.6-0.3,1.1-0.1,1.1,0.6l0,6.9c0,0.7-0.5,1.5-1.1,1.9L331.4,202
			c-0.6,0.3-1.1,0.1-1.1-0.6l0-6.9C330.3,193.8,330.8,193,331.4,192.6z"/>
		<path id="XMLID_16164_" class="st2" d="M352.5,199.2l-24.1,13.9c-1.2,0.7-2.2,2.4-2.2,3.8v46.6c0,1.4,1,1.9,2.2,1.3l24.1-13.9
			c1.2-0.7,2.2-2.4,2.2-3.8v-46.6C354.7,199.1,353.7,198.5,352.5,199.2z"/>
		<path id="XMLID_16162_" class="st12" d="M333.3,215c1.6-1,3-0.2,3,1.7c0,1.9-1.3,4.2-3,5.2c-1.6,1-3,0.2-3-1.7
			C330.3,218.3,331.6,216,333.3,215z"/>
		<path id="XMLID_16153_" class="st12" d="M338.4,215.5c0-0.6,0.5-1.5,1.1-1.8l10-5.8c0.6-0.3,1.1-0.1,1.1,0.5
			c0,0.6-0.5,1.5-1.1,1.8l-10,5.8C338.9,216.4,338.4,216.2,338.4,215.5z"/>
		<path id="XMLID_16150_" class="st12" d="M331.4,225.5l18.1-10.5c0.6-0.3,1.1-0.1,1.1,0.6l0,6.9c0,0.7-0.5,1.5-1.1,1.9l-18.1,10.5
			c-0.6,0.3-1.1,0.1-1.1-0.6l0-6.9C330.3,226.7,330.8,225.8,331.4,225.5z"/>
		<path id="XMLID_16170_" class="st12" d="M333.3,238.4c1.6-1,3-0.2,3,1.7c0,1.9-1.3,4.2-3,5.2c-1.6,1-3,0.2-3-1.7
			C330.3,241.7,331.6,239.4,333.3,238.4z"/>
		<path id="XMLID_16166_" class="st12" d="M338.4,239c0-0.6,0.5-1.5,1.1-1.8l10-5.8c0.6-0.3,1.1-0.1,1.1,0.5c0,0.6-0.5,1.5-1.1,1.8
			l-10,5.8C338.9,239.9,338.4,239.6,338.4,239z"/>
		<path id="XMLID_16165_" class="st12" d="M331.4,248.9l18.1-10.5c0.6-0.3,1.1-0.1,1.1,0.6l0,6.9c0,0.7-0.5,1.5-1.1,1.9l-18.1,10.5
			c-0.6,0.3-1.1,0.1-1.1-0.6l0-6.9C330.3,250.1,330.8,249.2,331.4,248.9z"/>
		<path id="XMLID_16176_" class="st2" d="M352.5,255.5l-24.1,13.9c-1.2,0.7-2.2,2.4-2.2,3.8v9.1c0,1.4,1,1.9,2.2,1.3l24.1-13.9
			c1.2-0.7,2.2-2.4,2.2-3.8v-9.1C354.7,255.3,353.7,254.8,352.5,255.5z"/>
		<path id="XMLID_16175_" class="st12" d="M333.3,270.4c1.6-1,3-0.2,3,1.7c0,1.9-1.3,4.2-3,5.2c-1.6,1-3,0.2-3-1.7
			C330.3,273.7,331.6,271.4,333.3,270.4z"/>
		<path id="XMLID_16174_" class="st12" d="M338.4,271c0-0.6,0.5-1.5,1.1-1.8l10-5.8c0.6-0.3,1.1-0.1,1.1,0.5c0,0.6-0.5,1.5-1.1,1.8
			l-10,5.8C338.9,271.9,338.4,271.6,338.4,271z"/>
		<g id="XMLID_15652_">
			<path id="XMLID_15568_" class="st12" d="M362.8,118.2v-2l0-10.1c0-1.1-0.8-2.4-1.7-3l-0.6-0.3c-1-0.6-2.5-0.6-3.5,0l-150.9,87.1
				c-1,0.6-1.7,0.1-1.7-1l0-5.4c0-1.1-0.8-2.4-1.7-3l-0.6-0.3c-1-0.6-2.5-0.6-3.5,0l-49.3,28.5c-1,0.6-1.7,1.9-1.7,3l0,10.1
				c0,1.1-0.8,2.4-1.7,3l-4.7,2.7c-1,0.6-1.7,1.9-1.7,3v12.1l4.1,2.3L362.8,118.2z"/>
			<path id="XMLID_430_" class="st1" d="M151.6,226.1h0.4l1.1-13.2L148,210c-0.3,0.5-0.5,1.2-0.5,1.7l0,10.1c0,0.6-0.2,1.2-0.5,1.7
				L151.6,226.1z"/>
			<path id="XMLID_15589_" class="st1" d="M139.9,228.7c-0.3,0.5-0.5,1.2-0.5,1.7v12.1l4.1,2.3l4.1-11.7L139.9,228.7z"/>
			<path id="XMLID_15488_" class="st12" d="M149.8,227.1l-4.7,2.7c-1,0.6-1.7,1.9-1.7,3l0,12.1l219.3-126.6l0-12.1
				c0-1.1-0.8-1.6-1.7-1l-155,89.5c-1,0.6-1.7,0.1-1.7-1l0-10.1c0-1.1-0.8-1.6-1.7-1L153.3,211c-1,0.6-1.7,1.9-1.7,3l0,10.1
				C151.6,225.2,150.8,226.5,149.8,227.1z"/>
			<g id="XMLID_15562_">
				<path id="XMLID_15484_" class="st1" d="M163.7,212c0,1.3,1,1.8,2.2,1.1l24.1-13.9c1.2-0.7,2.2-2.3,2.2-3.6c0-1.3-1-1.8-2.2-1.1
					l-24.1,13.9C164.7,209.1,163.7,210.7,163.7,212z"/>
				<path id="XMLID_15486_" class="st2" d="M157.7,213.2c-1.1,0.6-2,2.2-2,3.5c0,1.3,0.9,1.8,2,1.2c1.1-0.6,2-2.2,2-3.5
					C159.7,213.1,158.8,212.6,157.7,213.2z"/>
				<g id="XMLID_15513_">
					<g id="XMLID_15532_">
						<path id="XMLID_17936_" class="st1" d="M200.3,193.8c-0.1,0-0.2,0-0.3-0.1l-4.1-2.3c-0.2-0.1-0.3-0.4-0.2-0.7
							c0.1-0.2,0.4-0.3,0.7-0.2l4.1,2.3c0.2,0.1,0.3,0.4,0.2,0.7C200.6,193.7,200.5,193.8,200.3,193.8z"/>
					</g>
					<g id="XMLID_15533_">
						<path id="XMLID_17935_" class="st1" d="M196.2,196.1c-0.1,0-0.2,0-0.3-0.1c-0.2-0.1-0.3-0.4-0.2-0.7l4.1-7
							c0.1-0.2,0.4-0.3,0.7-0.2c0.2,0.1,0.3,0.4,0.2,0.7l-4.1,7C196.6,196,196.4,196.1,196.2,196.1z"/>
					</g>
				</g>
			</g>
			<g id="XMLID_15557_">
				<g id="XMLID_15541_">
					<g id="XMLID_15552_">
						<path id="XMLID_17934_" class="st1" d="M149.6,234.5c-0.2,0-0.3-0.1-0.4-0.3c-0.1-0.2-0.1-0.5,0.2-0.7l4.9-2.8
							c0.2-0.1,0.5-0.1,0.7,0.2c0.1,0.2,0.1,0.5-0.2,0.7l-4.9,2.8C149.7,234.5,149.6,234.5,149.6,234.5z"/>
					</g>
					<g id="XMLID_15549_">
						<path id="XMLID_17933_" class="st1" d="M151.6,236c-0.1,0-0.2,0-0.2-0.1l-2.8-1.5l2.6-4.4c0.1-0.2,0.4-0.3,0.7-0.2
							c0.2,0.1,0.3,0.4,0.2,0.7l-2.1,3.5l1.9,1c0.2,0.1,0.3,0.4,0.2,0.7C151.9,235.9,151.7,236,151.6,236z"/>
					</g>
				</g>
				<g id="XMLID_15553_">
					<g id="XMLID_15555_">
						<path id="XMLID_17932_" class="st1" d="M156.8,230.3c-0.2,0-0.3-0.1-0.4-0.3c-0.1-0.2-0.1-0.5,0.2-0.7l4.9-2.8
							c0.2-0.1,0.5-0.1,0.7,0.2c0.1,0.2,0.1,0.5-0.2,0.7l-4.9,2.8C157,230.3,156.9,230.3,156.8,230.3z"/>
					</g>
					<g id="XMLID_15554_">
						<path id="XMLID_17930_" class="st1" d="M159.7,231.3c-0.1,0-0.2,0-0.3-0.1c-0.2-0.1-0.3-0.4-0.2-0.7l2.1-3.5l-1.9-1
							c-0.2-0.1-0.3-0.4-0.2-0.7c0.1-0.2,0.4-0.3,0.7-0.2l2.8,1.5l-2.6,4.4C160,231.2,159.8,231.3,159.7,231.3z"/>
					</g>
				</g>
				<path id="XMLID_15539_" class="st12" d="M170,220.2l158.2-91.3c1.2-0.7,2.2-0.2,2.2,1.1c0,1.3-1,2.9-2.2,3.6L170,224.8
					c-1.2,0.7-2.2,0.2-2.2-1.1C167.8,222.5,168.8,220.8,170,220.2z"/>
				<path id="XMLID_15556_" class="st8" d="M336.4,124.1c1.1-0.6,2-0.1,2,1.2c0,1.3-0.9,2.9-2,3.5c-1.1,0.6-2,0.1-2-1.2
					C334.3,126.3,335.3,124.7,336.4,124.1z"/>
				<path id="XMLID_15558_" class="st8" d="M344.5,119.4c1.1-0.6,2-0.1,2,1.2c0,1.3-0.9,2.9-2,3.5s-2,0.1-2-1.2
					C342.5,121.6,343.4,120,344.5,119.4z"/>
				<path id="XMLID_15559_" class="st8" d="M352.6,114.7c1.1-0.6,2-0.1,2,1.2c0,1.3-0.9,2.9-2,3.5c-1.1,0.6-2,0.1-2-1.2
					C350.6,116.9,351.5,115.3,352.6,114.7z"/>
			</g>
		</g>
	</g>
	<g id="XMLID_16500_">
		<path id="XMLID_15740_" class="st11" d="M406.2,155.8c-1.9,2-16.4,17-16.4,17s-16.1-1.6-21.6-3.2c-1.7-0.5-3.1-2.9-3.5-4.8
			c-0.4-2-1.9-2.2-1.9-2.2v4c-0.1,1-0.6,1.5-2.1,1.6c-5.5,0.1-8.1-1.6-8.8,1.4c-0.4,1.9,0.4,4.1,4.1,5.1c5.1,1.4,8,0.7,11.1,1.5
			c2.4,0.6,19.2,3.8,22.5,4.5c1.7,0.4,3.1,0.3,5-1.6c1.9-1.9,16.1-15.2,16.1-15.2c4.3-4.3,3.1-8.9,0.6-10.2
			C409.8,152.9,408.1,153.8,406.2,155.8z"/>
		<path id="XMLID_15742_" class="st2" d="M411.2,153.6c1.1,0.4,2.4,1.6,2.5,4.5c0.1,2.9-2.1,5.6-4.6,8.6c-2.5,3-3.3,3.8-3.3,3.8
			s-6.4-2.3-7.5-7.1c0,0,4.9-5.1,6.3-6.8C406,155,408.7,152.5,411.2,153.6z"/>
	</g>
</g>
<g id="Button">
	<g>
		<path id="XMLID_15654_" class="st6" d="M226.6,438.3l-32.2-18.6c-1.2-0.7-2.2-2.4-2.2-3.8v-4.4c0-1.4,1-3.1,2.2-3.8l36.3-21
			c1.2-0.7,3.1-0.7,4.3,0l32.2,18.6c1.2,0.7,2.2,2.4,2.2,3.8v4.4c0,1.4-1,3.1-2.2,3.8l-36.3,21C229.7,439,227.8,439,226.6,438.3z"/>
		<path id="XMLID_15690_" class="st7" d="M192.2,411.5v4.4c0,1.4,1,3.1,2.2,3.8l32.2,18.6c0.6,0.3,1.4,0.5,2.2,0.5v-13.3l-32.5-18.8
			l-1.9,1.1C193.1,408.5,192.2,410.2,192.2,411.5z"/>
		<path id="XMLID_15655_" class="st5" d="M230.6,386.8l-36.3,21c-1.2,0.7-1.2,1.8,0,2.5l32.2,18.6c1.2,0.7,3.1,0.7,4.3,0l36.3-21
			c1.2-0.7,1.2-1.8,0-2.5L235,386.8C233.8,386.1,231.8,386.1,230.6,386.8z"/>
		<path id="XMLID_15658_" class="st4" d="M225.7,409.4c0.3-1.2,2.3-2.4,4.4-2.5l1.9-0.2c1.1-0.1,2-0.7,2.2-1.3
			c0.2-0.6-0.6-1-1.6-0.9l-1.9,0.2c-2.1,0.2-4.1,0.8-5.7,1.7c-1.7,1-2.7,2.1-3,3.3l-1.8,7.2c-0.6,2.4,2.3,4.1,6.6,3.8l1.9-0.2
			c2.1-0.2,4.1-0.8,5.7-1.7c1.7-1,2.7-2.1,3-3.3l0.8-3.4c0.2-0.6-0.6-1-1.6-0.9c-1.1,0.1-2,0.7-2.2,1.3l-0.8,3.4
			c-0.3,1.2-2.3,2.4-4.4,2.5l-1.9,0.2c-2.1,0.2-3.6-0.7-3.3-1.9L225.7,409.4L225.7,409.4z M239.7,406l1.8-7.2
			c0.3-1.2-0.2-2.2-1.5-2.9c-1.2-0.7-3.1-1-5.1-0.8l-1.9,0.2c-2,0.2-4.1,0.8-5.7,1.7c-1.7,1-2.7,2.1-3,3.3l-0.8,3.1
			c-0.2,0.6,0.6,1,1.6,0.9c1.1-0.1,2-0.7,2.2-1.3l0.8-3.1c0.1-0.6,0.7-1.2,1.5-1.7c0.8-0.5,1.8-0.8,2.9-0.9l1.9-0.2
			c1-0.1,1.9,0.1,2.6,0.4c0.6,0.4,0.9,0.9,0.7,1.5l-1.8,7.2c-0.3,1.2-2.3,2.4-4.4,2.5c-1.1,0.1-2,0.7-2.2,1.3
			c-0.2,0.6,0.6,1,1.6,0.9c2.1-0.2,4.1-0.8,5.7-1.7C238.3,408.4,239.4,407.2,239.7,406L239.7,406z M239.7,406"/>
	</g>
</g>
<g id="Speech_bubble">
	<g>
		<g>
			<path id="XMLID_15694_" class="st1" d="M261.2,376l0-4.4c0-1.4,1-3.1,2.2-3.8l101.3-58.5c1.2-0.7,3.1-0.7,4.3,0l32.2,18.6
				c1.2,0.7,2.2,2.4,2.2,3.8l0,4.4c0,1.4-1,3.1-2.2,3.8L300,398.4c-1.2,0.7-3.1,0.7-4.3,0l-32.2-18.6
				C262.2,379.1,261.2,377.4,261.2,376z"/>
			<path id="XMLID_15698_" class="st12" d="M403.4,335v-3.3c0-1.4-1-3.1-2.2-3.8l-1.9-1.1l-101.5,58.6l0,13.3c0.8,0,1.6-0.2,2.2-0.5
				l50.6-29.2l50.6-29.2c1.2-0.7,2.2-2.4,2.2-3.7V335z"/>
			<path id="XMLID_15691_" class="st4" d="M263.4,370.4l32.2,18.6c1.2,0.7,3.1,0.7,4.3,0l101.3-58.5c1.2-0.7,1.2-1.8,0-2.5
				L369,309.4c-1.2-0.7-3.1-0.7-4.3,0l-101.3,58.5C262.2,368.6,262.2,369.7,263.4,370.4z"/>
			<path id="XMLID_15697_" class="st1" d="M285.6,392.6l-19.2,5c-1,0.3-1.8-0.9-1.1-1.7l8.1-10.3L285.6,392.6z"/>
			<polygon id="XMLID_15695_" class="st1" points="285.6,383.2 285.6,392.6 265,396.6 265,387.2 			"/>
			<path id="XMLID_15696_" class="st4" d="M285.6,383.2l-19.2,5c-1,0.3-1.8-0.9-1.1-1.7l8.1-10.3L285.6,383.2z"/>
			<path id="XMLID_17839_" class="st2" d="M307.5,355.8c-1,0-2-0.3-3-0.9c-0.9-0.5-1.4-1.1-1.5-1.7c-0.1-0.6,0.4-1.2,1.3-1.7
				c0.9-0.5,1.9-0.8,2.9-0.7c1,0,2,0.3,3,0.9c0.9,0.5,1.4,1.1,1.5,1.7c0.1,0.6-0.4,1.2-1.3,1.7C309.5,355.6,308.5,355.9,307.5,355.8
				z M309.9,353.5c-0.1-0.3-0.4-0.7-1.1-1.1c-0.6-0.4-1.2-0.6-1.8-0.6c-0.6,0-1.1,0.1-1.6,0.4c-0.5,0.3-0.7,0.6-0.6,0.9
				c0.1,0.3,0.4,0.7,1,1c0.6,0.4,1.2,0.6,1.8,0.6c0.6,0,1.1-0.1,1.6-0.4C309.7,354.2,309.9,353.9,309.9,353.5z"/>
			<path id="XMLID_17842_" class="st2" d="M316.4,354.1c-0.1,0-0.3-0.1-0.4-0.1l-7.2-4.1c0-0.3,0.2-0.6,0.5-0.9
				c0.3-0.3,0.7-0.6,1.1-0.9c2-1.2,4-1.1,6.1,0c0.9,0.5,1.5,1.1,1.6,1.7c0.1,0.6-0.2,1.1-1,1.5c-0.7,0.4-1.5,0.6-2.3,0.5l2.5,1.4
				c0.2,0.1,0.2,0.2,0.2,0.2c0,0.1-0.1,0.2-0.2,0.2l-0.5,0.3C316.7,354,316.6,354.1,316.4,354.1z M316.3,349.8
				c-0.1-0.3-0.5-0.7-1.1-1.1c-0.7-0.4-1.3-0.6-1.9-0.6c-0.6,0-1.2,0.2-1.7,0.5c-0.4,0.3-0.7,0.5-0.8,0.7l2.4,1.4
				c0.4,0.2,0.9,0.4,1.3,0.3c0.5,0,0.9-0.1,1.3-0.3C316.2,350.5,316.4,350.2,316.3,349.8z"/>
			<path id="XMLID_17845_" class="st2" d="M321.5,348.3c-0.6,0.1-1.3,0.1-2,0c-0.7-0.1-1.4-0.4-2.1-0.7c-1-0.6-1.6-1.2-1.6-1.8
				c-0.1-0.6,0.4-1.1,1.2-1.6c0.9-0.5,1.8-0.7,2.8-0.7c1,0,1.9,0.3,2.9,0.9c0.3,0.2,0.3,0.3,0.1,0.4L319,347
				c0.5,0.3,1.1,0.4,1.7,0.4c0.6,0,1.2-0.2,1.8-0.5c0.5-0.3,0.9-0.7,1-1.1c0,0,0-0.1,0.1-0.1c0,0,0.1,0,0.2,0l0.8,0.2
				c0.1,0,0.1,0,0.2,0.1c0.1,0,0.1,0.1,0.1,0.1c-0.1,0.3-0.2,0.5-0.5,0.8c-0.2,0.2-0.6,0.5-1,0.7
				C322.8,347.9,322.2,348.2,321.5,348.3z M321.1,344.8c-0.5-0.3-1-0.4-1.5-0.5c-0.5,0-1,0.1-1.5,0.4c-0.5,0.3-0.7,0.6-0.7,0.9
				c0,0.3,0.3,0.6,0.8,0.9L321.1,344.8z"/>
			<path id="XMLID_17848_" class="st2" d="M326.6,345.4c-0.1,0-0.3,0-0.4-0.1l-5-2.9c-0.1-0.1-0.2-0.1-0.2-0.2c0,0,0-0.1,0.1-0.2
				l0.6-0.3c0.2-0.1,0.3-0.1,0.5,0l0.5,0.3c-0.1-0.6,0.2-1.2,1.1-1.7c0.6-0.3,1.2-0.5,1.9-0.5c0.7,0,1.4,0.2,2.1,0.6l3.4,2
				c0.1,0.1,0.2,0.2,0.2,0.2c0,0.1,0,0.2-0.2,0.2l-0.6,0.3c-0.1,0.1-0.3,0.1-0.4,0.1c-0.1,0-0.3,0-0.4-0.1l-3.3-1.9
				c-0.4-0.2-0.7-0.3-1.1-0.3c-0.3,0-0.7,0.1-1,0.3c-0.4,0.2-0.6,0.5-0.6,0.8c0,0.3,0.1,0.5,0.5,0.7l3.2,1.8
				c0.1,0.1,0.2,0.2,0.2,0.2s-0.1,0.2-0.2,0.2l-0.5,0.3C326.9,345.3,326.8,345.4,326.6,345.4z"/>
			<path id="XMLID_17850_" class="st2" d="M330.1,335.5c-0.2,0-0.4-0.1-0.5-0.2l-0.3-0.1c-0.2-0.1-0.3-0.2-0.3-0.3
				c0-0.1,0.1-0.2,0.2-0.3l0.4-0.3c0.2-0.1,0.4-0.1,0.6-0.1c0.2,0,0.4,0.1,0.6,0.2l0.3,0.1c0.2,0.1,0.2,0.2,0.3,0.3
				c0,0.1-0.1,0.2-0.2,0.3l-0.4,0.3C330.5,335.5,330.3,335.5,330.1,335.5z M337,339.4c-0.1,0-0.3,0-0.4-0.1l-4.9-2.8
				c-0.2-0.1-0.2-0.2-0.2-0.2c0-0.1,0.1-0.2,0.2-0.2l0.5-0.3c0.1-0.1,0.3-0.1,0.4-0.1c0.1,0,0.3,0.1,0.4,0.1l4.9,2.8
				c0.1,0.1,0.2,0.2,0.2,0.2c0,0.1-0.1,0.2-0.2,0.2l-0.5,0.3C337.2,339.4,337.1,339.4,337,339.4z"/>
			<path id="XMLID_17853_" class="st2" d="M339.6,337.9c-0.1,0-0.3,0-0.4-0.1l-5-2.9c-0.1-0.1-0.2-0.1-0.2-0.2c0,0,0-0.1,0.1-0.2
				l0.6-0.3c0.2-0.1,0.3-0.1,0.5,0l0.5,0.3c-0.1-0.6,0.2-1.2,1.1-1.7c0.6-0.3,1.2-0.5,1.9-0.5c0.7,0,1.4,0.2,2.1,0.6l3.4,2
				c0.1,0.1,0.2,0.2,0.2,0.2c0,0.1,0,0.2-0.2,0.2l-0.6,0.3c-0.1,0.1-0.3,0.1-0.4,0.1c-0.1,0-0.3,0-0.4-0.1l-3.3-1.9
				c-0.4-0.2-0.7-0.3-1.1-0.3c-0.3,0-0.7,0.1-1,0.3c-0.4,0.2-0.6,0.5-0.6,0.8c0,0.3,0.1,0.5,0.5,0.7l3.2,1.8
				c0.1,0.1,0.2,0.2,0.2,0.2c0,0.1-0.1,0.2-0.2,0.2l-0.5,0.3C339.9,337.9,339.7,337.9,339.6,337.9z"/>
			<path id="XMLID_17754_" class="st2" d="M306,380.6c-0.3,0-0.7-0.1-1.1-0.4l-12.9-7.4c-0.4-0.2-0.6-0.4-0.6-0.6
				c0-0.2,0.2-0.4,0.5-0.6l1.5-0.9c0.2-0.1,0.5-0.2,0.7-0.3c0.2,0,0.5,0,0.8,0l11.8,1.7l-6.8-3.9c-0.4-0.2-0.6-0.4-0.6-0.6
				c0-0.2,0.1-0.4,0.5-0.6l1.9-1.1c0.4-0.2,0.7-0.3,1.1-0.3c0.3,0,0.7,0.1,1.1,0.4l12.9,7.4c0.4,0.2,0.6,0.4,0.6,0.6
				c0,0.2-0.2,0.4-0.5,0.6l-1.5,0.9c-0.2,0.1-0.5,0.2-0.7,0.3c-0.2,0-0.5,0-0.8,0l-11.8-1.7l6.8,3.9c0.4,0.2,0.6,0.4,0.6,0.6
				c0,0.2-0.2,0.4-0.5,0.6l-1.9,1.1C306.6,380.5,306.3,380.6,306,380.6z"/>
			<path id="XMLID_17759_" class="st2" d="M319.4,372.8c-0.3,0-0.7-0.1-1.1-0.4l-12.9-7.4c-0.4-0.2-0.6-0.4-0.6-0.6
				c0-0.2,0.1-0.4,0.5-0.6l8-4.6c0.4-0.2,0.7-0.3,1-0.3c0.3,0,0.6,0.2,1,0.4l1,0.6c0.4,0.2,0.6,0.4,0.7,0.6c0,0.2-0.1,0.4-0.5,0.6
				l-5.1,2.9l2.7,1.6l3.4-1.9c0.4-0.2,0.7-0.3,1-0.3c0.3,0,0.7,0.1,1.1,0.4l1,0.6c0.4,0.2,0.6,0.4,0.7,0.6c0,0.2-0.1,0.4-0.5,0.6
				l-3.4,1.9l2.7,1.6l5.1-2.9c0.4-0.2,0.7-0.3,1-0.3c0.3,0,0.6,0.2,1,0.4l1,0.6c0.4,0.2,0.6,0.4,0.6,0.6c0,0.2-0.1,0.4-0.5,0.6
				l-8,4.6C320.1,372.7,319.8,372.8,319.4,372.8z"/>
			<path id="XMLID_17762_" class="st2" d="M332.9,365.2c-0.3,0-0.5,0-0.9-0.2l-16.6-6.2c-0.1,0-0.2-0.1-0.3-0.1
				c-0.3-0.2-0.3-0.3,0.1-0.5l2.7-1.6c0.2-0.1,0.4-0.2,0.6-0.2c0.2,0,0.4,0,0.6,0.1l7.9,3.3l-4-4.1c-0.2-0.2-0.3-0.3-0.2-0.4
				c0-0.1,0.1-0.2,0.4-0.4l1.3-0.7c0.2-0.1,0.4-0.2,0.6-0.2c0.2,0,0.4,0,0.7,0.1l7.1,2.3l-5.7-4.6c-0.2-0.1-0.2-0.2-0.2-0.4
				c0-0.1,0.1-0.2,0.4-0.4l2.7-1.6c0.3-0.2,0.6-0.2,0.9,0c0.1,0.1,0.2,0.1,0.2,0.2l10.7,9.6c0.2,0.2,0.3,0.3,0.3,0.5
				c0,0.1-0.2,0.3-0.4,0.4l-1.8,1c-0.3,0.1-0.5,0.2-0.8,0.2c-0.2,0-0.5,0-0.9-0.2l-7.3-2.5l4.4,4.2c0.2,0.2,0.3,0.4,0.3,0.5
				c0,0.1-0.2,0.3-0.4,0.4l-1.8,1C333.4,365.1,333.1,365.2,332.9,365.2z"/>
			<path id="XMLID_17765_" class="st2" d="M356.5,351.4c-0.3,0-0.7-0.1-1.1-0.4l-10.7-6.2l-3,1.7c-0.4,0.2-0.7,0.3-1,0.3
				c-0.3,0-0.6-0.1-1-0.4l-1-0.6c-0.4-0.2-0.6-0.4-0.7-0.6c0-0.2,0.1-0.4,0.5-0.6l9.8-5.7c0.4-0.2,0.7-0.3,1-0.3
				c0.3,0,0.7,0.1,1,0.4l1,0.6c0.4,0.2,0.6,0.4,0.6,0.6c0,0.2-0.1,0.4-0.5,0.6l-3,1.7l10.7,6.2c0.4,0.2,0.6,0.4,0.6,0.6
				c0,0.2-0.1,0.4-0.5,0.6l-1.9,1.1C357.1,351.4,356.8,351.5,356.5,351.4z"/>
			<path id="XMLID_17768_" class="st2" d="M362,348.1c-0.1-0.1-0.2-0.2-0.3-0.3l-8.6-10.6c-0.2-0.2-0.3-0.4-0.3-0.5
				c0-0.1,0.1-0.3,0.4-0.4l1.8-1c0.2-0.1,0.5-0.2,0.7-0.2c0.2,0,0.5,0,0.9,0.1l18.4,5c0.2,0.1,0.4,0.1,0.5,0.2
				c0.1,0.1,0.2,0.2,0.2,0.2c0,0.1-0.1,0.2-0.2,0.2l-3,1.7c-0.2,0.1-0.4,0.2-0.5,0.2c-0.2,0-0.4,0-0.7-0.1l-2.8-0.8l-4,2.3l1.5,1.6
				c0.1,0.1,0.2,0.3,0.2,0.4c0,0.1-0.1,0.2-0.3,0.3l-3,1.7C362.5,348.2,362.3,348.2,362,348.1z M364.6,340.5l-4.9-1.5l2.6,2.9
				L364.6,340.5z"/>
		</g>
		<path id="XMLID_17796_" class="st2" d="M377.1,339.5c-0.3,0-0.7-0.1-1.1-0.4l-12.9-7.4c-0.4-0.2-0.6-0.4-0.6-0.6
			c0-0.2,0.1-0.4,0.5-0.6l5.7-3.3c1.5-0.9,3-1.3,4.5-1.3c1.5,0,2.9,0.4,4.3,1.2c0.7,0.4,1.1,0.8,1.4,1.3c0.3,0.5,0.3,0.9,0,1.3
			c1.7-0.5,3.5-0.2,5.1,0.8c1.3,0.8,2,1.6,2.1,2.6c0,1-0.7,1.9-2.3,2.8l-5.7,3.3C377.8,339.4,377.4,339.5,377.1,339.5z M373.9,331
			c0.4-0.2,0.6-0.5,0.6-0.7c0-0.3-0.2-0.5-0.7-0.8c-0.5-0.3-0.9-0.4-1.3-0.4c-0.4,0-0.8,0.1-1.3,0.4l-2.1,1.2l2.7,1.6L373.9,331z
			 M380.2,334.3c0.4-0.2,0.6-0.5,0.5-0.8c0-0.3-0.3-0.6-0.7-0.8c-0.5-0.3-1-0.4-1.5-0.4c-0.5,0-1,0.1-1.4,0.4l-2.4,1.4l3,1.7
			L380.2,334.3z"/>
	</g>
</g>
<g id="Pointer">
	<g>
		<path id="XMLID_15656_" class="st2" d="M285.1,399.8l-33.3,2.6c-0.7,0.1-1.2,0.7-1.2,1.3v2.2c0,0.7,0.5,1.5,1.1,1.8l21.2,10.4
			c0.6,0.3,1.2,0,1.3-0.7l0.4-3.4c0.1-0.7,0.7-1.2,1.4-1.1l10.2,1.5c0.7,0.1,1.6-0.2,2.1-0.8l1.5-1.8c0.5-0.5,0.8-1.5,0.8-2.2v-2.2
			c0-0.7-0.6-1.3-1.2-1.4l-4.8-0.7c0,0,0.4-0.2,0.9-0.5c0.5-0.3,0.9-1.1,0.9-1.8V401C286.3,400.3,285.8,399.8,285.1,399.8z"/>
		<path id="XMLID_33_" class="st15" d="M285.1,399.8l-33.3,2.6c-0.7,0.1-1.2,0.7-1.2,1.3v2.2c0,0.7,0.5,1.5,1.1,1.8l21.2,10.4
			c0.6,0.3,1.2,0,1.3-0.7l0.4-3.4c0.1-0.7,0.7-1.2,1.4-1.1l10.2,1.5c0.7,0.1,1.6-0.2,2.1-0.8l1.5-1.8c0.5-0.5,0.8-1.5,0.8-2.2v-2.2
			c0-0.7-0.6-1.3-1.2-1.4l-4.8-0.7c0,0,0.4-0.2,0.9-0.5c0.5-0.3,0.9-1.1,0.9-1.8V401C286.3,400.3,285.8,399.8,285.1,399.8z"/>
		<path id="XMLID_15693_" class="st2" d="M250.5,403.8v2.2c0,0.7,0.5,1.5,1.1,1.8l21.2,10.4c0.2,0.1,0.4,0.1,0.6,0.1v-5.6
			l-21.7-10.3C251.1,402.5,250.5,403.1,250.5,403.8z"/>
		<path id="XMLID_32_" class="st3" d="M250.5,403.8v2.2c0,0.7,0.5,1.5,1.1,1.8l21.2,10.4c0.2,0.1,0.4,0.1,0.6,0.1v-5.6l-21.7-10.3
			C251.1,402.5,250.5,403.1,250.5,403.8z"/>
		<path id="XMLID_15692_" class="st2" d="M275.2,413.2c0.2-0.1,0.5-0.2,0.7-0.1l10.2,1.5c0.3,0,0.7,0,1-0.1v-5.2l-11.9-1.7V413.2z"
			/>
		<path id="XMLID_34_" class="st3" d="M275.2,413.2c0.2-0.1,0.5-0.2,0.7-0.1l10.2,1.5c0.3,0,0.7,0,1-0.1v-5.2l-11.9-1.7V413.2z"/>
		<path id="XMLID_15653_" class="st2" d="M285.1,399.8l-33.3,2.6c-0.7,0.1-0.7,0.3-0.1,0.6l21.2,10.4c0.6,0.3,1.2,0,1.3-0.7l0.4-3.4
			c0.1-0.7,0.7-1.2,1.4-1.1l10.2,1.5c0.7,0.1,1.6-0.2,2.1-0.8l1.5-1.8c0.5-0.5,0.3-1-0.4-1.1l-10.2-1.5c-0.7-0.1-0.7-0.5-0.1-0.8
			l6.3-3.5C285.8,400,285.8,399.8,285.1,399.8z"/>
	</g>
</g>
</svg>
