<?xml version="1.0" encoding="utf-8"?>
<!-- Generator: Adobe Illustrator 22.0.1, SVG Export Plug-In . SVG Version: 6.00 Build 0)  -->
<svg version="1.1" id="Capa_1" xmlns="http://www.w3.org/2000/svg" xmlns:xlink="http://www.w3.org/1999/xlink" x="0px" y="0px"
	 viewBox="0 0 512 512" style="enable-background:new 0 0 512 512;" xml:space="preserve">
<style type="text/css">
	.st0{fill:#3FB777;}
	.st1{fill:#FFFFFF;}
	.st2{fill:#54AAC5;stroke:#FFFFFF;stroke-width:6;stroke-miterlimit:10;}
	.st3{fill:#EA4647;}
	.st4{fill:#E9E9EA;}
	.st5{fill:#55ACD5;}
	.st6{fill:#FFCD29;}
	.st7{fill:#ACDEF9;}
	.st8{fill:#6DCC6D;}
	.st9{fill:#231F20;}
</style>
<path class="st0" d="M512,256c0,62.4-22.3,119.5-59.4,163.9c-18.5,22.1-40.6,41.1-65.4,55.9c-9.3,5.5-18.9,10.5-28.9,14.9
	c-2.6,1.1-5.2,2.2-7.8,3.2c-1.3,0.5-2.7,1.1-4.1,1.6c-4.6,1.8-9.4,3.4-14.1,4.9c-4.4,1.4-8.9,2.7-13.5,3.8c-2.1,0.5-4.3,1-6.4,1.5
	c-1.2,0.3-2.4,0.5-3.7,0.8c-0.4,0.1-0.7,0.2-1.1,0.2c-4.6,1-9.3,1.8-14,2.5c-4.8,0.7-9.7,1.3-14.6,1.7c-7.6,0.7-15.2,1-23,1
	c-17.4,0-34.4-1.7-50.9-5.1C88.1,483.3,0,380,0,256C0,114.6,114.6,0,256,0S512,114.6,512,256z"/>
<g>
	<g>
		<path class="st1" d="M167.2,41.9h8.8c9.6,0,15.7,4.8,15.7,15.5c0,10.8-6.2,15.8-15.3,15.8h-9.2V41.9z M175.6,67.5
			c5.3,0,8.9-2.6,8.9-10.1c0-7.5-3.6-9.8-8.9-9.8h-1.3v19.9H175.6z"/>
		<path class="st1" d="M196.9,64.1V49.3h7.1v13.9c0,3.4,0.9,4.5,3,4.5c1.8,0,2.9-0.7,4.2-2.6V49.3h7.1v23.8h-5.8l-0.5-3.3h-0.2
			c-2,2.4-4.2,3.9-7.5,3.9C199.1,73.7,196.9,70.1,196.9,64.1z"/>
		<path class="st1" d="M224.4,49.3h5.8l0.5,4.2h0.2c1.7-3.2,4.3-4.7,6.8-4.7c1.4,0,2.2,0.2,2.8,0.5l-1.2,6.1
			c-0.8-0.2-1.5-0.4-2.6-0.4c-1.8,0-4,1.2-5.2,4.4v13.8h-7.1V49.3z"/>
		<path class="st1" d="M242.4,66.6c0-5,4-7.7,13.4-8.7c-0.1-2.1-1.2-3.4-3.8-3.4c-2,0-4,0.8-6.3,2.2l-2.5-4.6
			c3-1.8,6.4-3.1,10.2-3.1c6.1,0,9.5,3.5,9.5,10.8v13.6h-5.8l-0.5-2.4h-0.2c-2,1.8-4.3,3-6.9,3C245.2,73.7,242.4,70.6,242.4,66.6z
			 M255.8,66.2v-4.2c-5,0.7-6.7,2.1-6.7,3.9c0,1.5,1.1,2.3,2.7,2.3C253.5,68.3,254.6,67.5,255.8,66.2z"/>
		<path class="st1" d="M267.4,61.3c0-7.9,5.8-12.5,12.4-12.5c2.9,0,5.2,1,7,2.6l-3.3,4.5c-1.1-1-2.1-1.4-3.2-1.4
			c-3.4,0-5.6,2.7-5.6,6.8s2.3,6.8,5.3,6.8c1.6,0,3.1-0.8,4.3-1.8l2.8,4.6c-2.3,2-5.3,2.8-7.8,2.8C272.6,73.7,267.4,69.2,267.4,61.3
			z"/>
		<path class="st1" d="M290.7,42.2c0-2.2,1.7-3.7,4.1-3.7c2.4,0,4.1,1.5,4.1,3.7c0,2.1-1.7,3.7-4.1,3.7
			C292.4,45.9,290.7,44.3,290.7,42.2z M291.3,49.3h7.1v23.8h-7.1V49.3z"/>
		<path class="st1" d="M303.1,61.3c0-7.9,5.6-12.5,11.6-12.5c6,0,11.6,4.6,11.6,12.5c0,7.9-5.6,12.5-11.6,12.5
			C308.7,73.7,303.1,69.2,303.1,61.3z M319.1,61.3c0-4.1-1.5-6.8-4.4-6.8c-2.9,0-4.4,2.7-4.4,6.8s1.5,6.8,4.4,6.8
			C317.7,68,319.1,65.4,319.1,61.3z M311.8,42.2l7.4-8.7l4.8,4.7l-8.7,7.5L311.8,42.2z"/>
		<path class="st1" d="M331.2,49.3h5.8l0.5,3h0.2c2-1.9,4.4-3.6,7.7-3.6c5.2,0,7.4,3.7,7.4,9.6v14.8h-7.1V59.3c0-3.4-0.9-4.5-3-4.5
			c-1.8,0-2.9,0.8-4.4,2.3v16.1h-7.1V49.3z"/>
	</g>
</g>
<line class="st2" x1="121.7" y1="84.6" x2="397" y2="84.6"/>
<path class="st3" d="M415.9,151.6h-14.4v21.9c0,4.1-3.3,7.4-7.3,7.5c-4,0.1-7.4-3.3-7.5-7.3v-0.1v-22.1h-14.8v21.9
	c0,4.1-3.3,7.4-7.3,7.5c-4,0.1-7.4-3.3-7.5-7.3v-0.1v-22.1h-14.8v21.9c0,4.1-3.3,7.4-7.3,7.5c-4,0.1-7.4-3.3-7.5-7.3v-0.1v-22.1
	H195.4v21.9c0,4.1-3.3,7.4-7.4,7.4s-7.4-3.3-7.4-7.4v-21.9H166v21.9c0,4.1-3.3,7.4-7.4,7.4c-4.1,0-7.4-3.3-7.4-7.4v-21.9h-14.8v21.9
	c0,4.1-3.3,7.4-7.4,7.4s-7.4-3.3-7.4-7.4v-21.9h-13.7c-4.8,0-8.7,3.8-8.7,8.7v53.5c0,4.8,3.8,8.7,8.7,8.7h308c4.8,0,8.7-3.8,8.7-8.7
	v-53.5C424.6,155.4,420.8,151.6,415.9,151.6z"/>
<path class="st4" d="M275.4,368.5c0-43.7,35.4-79,79-79c24.8,0,48.1,11.5,63.1,31.3v-98.4h-311v216.4c0,4.8,3.8,8.7,8.7,8.7h239.3
	C310.9,447.5,275.4,412.2,275.4,368.5z"/>
<path class="st5" d="M433.4,368.5c0,43.6-35.4,79-79,79c-43.6,0-79-35.4-79-79s35.4-79,79-79C398.1,289.5,433.4,324.9,433.4,368.5z"
	/>
<path class="st6" d="M415.6,368.5c0,33.8-27.4,61.2-61.2,61.2c-33.8,0-61.2-27.4-61.2-61.2s27.4-61.2,61.2-61.2
	C388.2,307.3,415.6,334.7,415.6,368.5z"/>
<path class="st4" d="M361.6,368.5c0,3.9-3.2,7.1-7.1,7.1c-3.9,0-7.1-3.2-7.1-7.1s3.2-7.1,7.1-7.1
	C358.4,361.4,361.6,364.6,361.6,368.5z"/>
<path class="st4" d="M129,122.2c4.1,0,7.4,3.3,7.4,7.4v43.8c0,4.1-3.3,7.4-7.4,7.4s-7.4-3.3-7.4-7.4v-44
	C121.6,125.5,125,122.2,129,122.2z"/>
<path class="st4" d="M158.6,122.2c4.1,0,7.4,3.3,7.4,7.4v43.8c0,4.1-3.3,7.4-7.4,7.4c-4.1,0-7.4-3.3-7.4-7.4v-44
	C151.2,125.5,154.5,122.2,158.6,122.2z"/>
<path class="st4" d="M188.2,122.2c4.1,0,7.4,3.3,7.4,7.4v43.8c0,4.1-3.3,7.4-7.4,7.4s-7.4-3.3-7.4-7.4v-44
	C180.8,125.5,184.1,122.2,188.2,122.2z"/>
<path class="st4" d="M334.9,122.2c4.1,0,7.4,3.3,7.4,7.4v43.8c0,4.1-3.3,7.4-7.4,7.4s-7.4-3.3-7.4-7.4v-44
	C327.5,125.5,331,122.2,334.9,122.2z"/>
<path class="st4" d="M364.5,122.2c4.1,0,7.4,3.3,7.4,7.4v43.8c0,4.1-3.3,7.4-7.4,7.4s-7.4-3.3-7.4-7.4v-44
	C357.1,125.5,360.4,122.2,364.5,122.2z"/>
<path class="st4" d="M394.2,122.2c4.1,0,7.4,3.3,7.4,7.4v43.8c0,4.1-3.3,7.4-7.4,7.4c-4.1,0-7.4-3.3-7.4-7.4v-44
	C386.8,125.5,390,122.2,394.2,122.2z"/>
<path class="st7" d="M231.7,251h16.1c3.6,0,6.5,2.8,6.5,6.5v16.1c0,3.6-2.8,6.5-6.5,6.5h-16.1c-3.6,0-6.5-2.8-6.5-6.5v-16.1
	C225.2,253.9,228,251,231.7,251z"/>
<path class="st7" d="M275.3,251h16.1c3.6,0,6.5,2.8,6.5,6.5v16.1c0,3.6-2.8,6.5-6.5,6.5h-16.1c-3.6,0-6.5-2.8-6.5-6.5v-16.1
	C268.8,253.9,271.7,251,275.3,251z"/>
<path class="st8" d="M319,251h16.1c3.6,0,6.5,2.8,6.5,6.5v16.1c0,3.6-2.8,6.5-6.5,6.5H319c-3.6,0-6.5-2.8-6.5-6.5v-16.1
	C312.5,253.9,315.3,251,319,251z"/>
<path class="st8" d="M144.5,294.6h16.1c3.6,0,6.5,2.8,6.5,6.5v16.1c0,3.6-2.8,6.5-6.5,6.5h-16.1c-3.6,0-6.5-2.8-6.5-6.5v-16.1
	C137.9,297.6,140.8,294.6,144.5,294.6z"/>
<path class="st8" d="M188,294.6h16.1c3.6,0,6.5,2.8,6.5,6.5v16.1c0,3.6-2.8,6.5-6.5,6.5H188c-3.6,0-6.5-2.8-6.5-6.5v-16.1
	C181.5,297.6,184.5,294.6,188,294.6z"/>
<path class="st8" d="M231.7,294.6h16.1c3.6,0,6.5,2.8,6.5,6.5v16.1c0,3.6-2.8,6.5-6.5,6.5h-16.1c-3.6,0-6.5-2.8-6.5-6.5v-16.1
	C225.2,297.6,228,294.6,231.7,294.6z"/>
<path class="st7" d="M144.5,338.3h16.1c3.6,0,6.5,2.8,6.5,6.5v16.1c0,3.6-2.8,6.5-6.5,6.5h-16.1c-3.6,0-6.5-2.8-6.5-6.5v-16.1
	C137.9,341.2,140.8,338.3,144.5,338.3z"/>
<path class="st7" d="M188,338.3h16.1c3.6,0,6.5,2.8,6.5,6.5v16.1c0,3.6-2.8,6.5-6.5,6.5H188c-3.6,0-6.5-2.8-6.5-6.5v-16.1
	C181.5,341.2,184.5,338.3,188,338.3z"/>
<path class="st7" d="M231.7,338.3h16.1c3.6,0,6.5,2.8,6.5,6.5v16.1c0,3.6-2.8,6.5-6.5,6.5h-16.1c-3.6,0-6.5-2.8-6.5-6.5v-16.1
	C225.2,341.2,228,338.3,231.7,338.3z"/>
<path class="st7" d="M144.5,381.9h16.1c3.6,0,6.5,2.8,6.5,6.5v16.1c0,3.6-2.8,6.5-6.5,6.5h-16.1c-3.6,0-6.5-2.8-6.5-6.5v-16.1
	C137.9,384.9,140.8,381.9,144.5,381.9z"/>
<path class="st7" d="M188,381.9h16.1c3.6,0,6.5,2.8,6.5,6.5v16.1c0,3.6-2.8,6.5-6.5,6.5H188c-3.6,0-6.5-2.8-6.5-6.5v-16.1
	C181.5,384.9,184.5,381.9,188,381.9z"/>
<path class="st7" d="M231.7,381.9h16.1c3.6,0,6.5,2.8,6.5,6.5v16.1c0,3.6-2.8,6.5-6.5,6.5h-16.1c-3.6,0-6.5-2.8-6.5-6.5v-16.1
	C225.2,384.9,228,381.9,231.7,381.9z"/>
<path class="st8" d="M362.6,251h16.1c3.6,0,6.5,2.8,6.5,6.5v16.1c0,3.6-2.8,6.5-6.5,6.5h-16.1c-3.6,0-6.5-2.8-6.5-6.5v-16.1
	C356.1,253.9,359,251,362.6,251z"/>
<path class="st7" d="M297.9,313.4v-12.2c0-3.6-3-6.5-6.5-6.5h-16.1c-3.6,0-6.5,3-6.5,6.5v16.1c0,3.6,3,6.5,6.5,6.5h14.1
	C292,320.1,294.8,316.5,297.9,313.4z"/>
<g>
	<path class="st9" d="M129,184.4c-6,0-11-4.8-11-11v-44c0-6,4.8-11,11-11c6.1,0,11,4.8,11,11v44C139.9,179.5,135.1,184.4,129,184.4z
		 M129,125.8c-2.1,0-3.8,1.7-3.8,3.8v43.8c0,2.1,1.7,3.8,3.8,3.8s3.8-1.7,3.8-3.8v-44C132.8,127.5,131.1,125.8,129,125.8z"/>
	<path class="st9" d="M158.6,184.4c-6,0-11-4.8-11-11v-44c0-6,5-11,11.1-10.8c6,0,10.8,4.8,10.8,10.8v44
		C169.5,179.5,164.6,184.4,158.6,184.4z M158.6,125.8c-2.1,0-3.8,1.7-3.8,3.8v43.8c0,2.1,1.9,3.8,3.8,3.7c2,0,3.7-1.7,3.7-3.7v-44
		C162.4,127.5,160.7,125.8,158.6,125.8z"/>
	<path class="st9" d="M188.2,184.4c-6,0-11-4.8-11-11v-44c0-6,4.8-11,11-11s11,4.8,11,11v44C199,179.5,194.2,184.4,188.2,184.4z
		 M188.2,125.8c-2.1,0-3.8,1.7-3.8,3.8v43.8c0,2.1,1.7,3.8,3.8,3.8s3.8-1.7,3.8-3.8v-44C191.9,127.5,190.2,125.8,188.2,125.8z"/>
	<path class="st9" d="M334.9,184.4c-6,0-11-4.8-11-11v-44c0-6,5-11,11.1-10.8c6,0,10.8,4.8,10.8,10.8v44
		C345.9,179.5,341.1,184.4,334.9,184.4z M334.9,125.8c-2.1,0-3.8,1.7-3.8,3.8v43.8c0,2.1,1.8,3.8,3.8,3.7c2,0,3.7-1.7,3.7-3.7v-44
		C338.8,127.5,337.1,125.8,334.9,125.8z"/>
	<path class="st9" d="M364.5,184.4c-6,0-11-4.8-11-11v-44c0-6,5-11,11.1-10.8c6,0,10.8,4.8,10.8,10.8v44
		C375.5,179.5,370.5,184.4,364.5,184.4z M364.5,125.8c-2.1,0-3.8,1.7-3.8,3.8v43.8c0,2.1,1.9,3.8,3.8,3.7c2,0,3.7-1.7,3.7-3.7v-44
		C368.4,127.5,366.7,125.8,364.5,125.8z"/>
	<path class="st9" d="M394.2,184.4c-6,0-11-4.8-11-11v-44c0-6,5-11,11.1-10.8c6,0,10.8,4.8,10.8,10.8v44
		C405,179.5,400.1,184.4,394.2,184.4z M394.2,125.8c-2.1,0-3.8,1.7-3.8,3.8v43.8c0,2.1,1.9,3.8,3.8,3.7c2,0,3.7-1.7,3.7-3.7v-44
		C397.9,127.5,396.1,125.8,394.2,125.8z"/>
	<path class="st9" d="M415.9,226h-308c-6.8,0-12.2-5.6-12.2-12.2v-53.5c0-6.8,5.6-12.2,12.2-12.2h13.7c2,0,3.6,1.6,3.6,3.6v21.9
		c0,2.1,1.7,3.8,3.8,3.8s3.8-1.7,3.8-3.8v-21.9c0-2,1.6-3.6,3.6-3.6h14.8c2,0,3.6,1.6,3.6,3.6v21.9c0,2.1,1.7,3.8,3.7,3.8
		c2.1,0,3.8-1.7,3.8-3.7v-0.1v-21.9c0-2,1.6-3.6,3.6-3.6h14.8c2,0,3.6,1.6,3.6,3.6v21.9c0,2.1,1.7,3.8,3.8,3.8s3.8-1.7,3.8-3.8
		v-21.9c0-2,1.6-3.6,3.6-3.6h132.1c2,0,3.6,1.6,3.6,3.6v21.9c0,2.1,1.7,3.8,3.7,3.8c2.1,0,3.8-1.7,3.8-3.7v-0.1v-21.9
		c0-2,1.6-3.6,3.6-3.6H357c2,0,3.6,1.6,3.6,3.6v21.9c0,2.1,1.7,3.8,3.7,3.8c2.1,0,3.8-1.7,3.8-3.7v-0.1v-21.9c0-2,1.6-3.6,3.6-3.6
		h14.8c2,0,3.6,1.6,3.6,3.6v21.9c0,2.1,1.7,3.8,3.7,3.8c2.1,0,3.8-1.7,3.8-3.7v-0.1v-21.9c0-2,1.6-3.6,3.6-3.6h14.5
		c6.8,0,12.2,5.6,12.2,12.2v53.5C428.2,220.6,422.8,226,415.9,226z M107.9,155.1c-2.8,0-5.1,2.3-5.1,5.1v53.5c0,2.8,2.3,5.1,5.1,5.1
		h308c2.8,0,5.1-2.3,5.1-5.1v-53.5c0-2.8-2.3-5.1-5.1-5.1h-11v18.4c0,6-4.8,11-10.8,11.1c-6,0.1-11-4.8-11.1-10.8c0-0.1,0-0.1,0-0.3
		v-18.4h-7.7v18.4c0,6-4.8,11-10.8,11.1c-6,0.1-11-4.8-11.1-10.8c0-0.1,0-0.1,0-0.3v-18.4h-7.7v18.4c0,6-4.8,11-10.8,11.1
		c-6,0.1-11-4.8-11.1-10.8c0-0.1,0-0.1,0-0.3v-18.4H199v18.4c0,6-4.8,11-11,11c-6.1,0-11-4.8-11-11v-18.4h-7.5v18.4
		c0,6-4.8,11-10.8,11.1c-6,0.1-11-4.8-11.1-10.8c0-0.1,0-0.1,0-0.3v-18.4h-7.7v18.4c0,6-4.8,11-11,11c-6,0-11-4.8-11-11v-18.4H107.9
		z"/>
	<path class="st9" d="M301.1,190.6h-78.1c-2,0-3.6-1.6-3.6-3.6s1.6-3.6,3.6-3.6h78.1c2,0,3.6,1.6,3.6,3.6S303.1,190.6,301.1,190.6z"
		/>
	<path class="st9" d="M247.8,283.6h-16.1c-5.6,0-10.1-4.6-10.1-10.1v-16.1c0-5.6,4.6-10.1,10.1-10.1h16.1c5.6,0,10.1,4.6,10.1,10.1
		v16.1C257.8,279.1,253.4,283.6,247.8,283.6z M231.7,254.6c-1.6,0-3,1.3-3,3v16.1c0,1.6,1.3,3,3,3h16.1c1.6,0,3-1.3,3-3v-16.1
		c0-1.6-1.3-3-3-3H231.7z"/>
	<path class="st9" d="M291.4,283.6h-16.1c-5.5,0-10.1-4.6-10.1-10.1v-16.1c0-5.6,4.6-10.1,10.1-10.1h16.1c5.6,0,10.1,4.6,10.1,10.1
		v16.1C301.5,279.1,296.9,283.6,291.4,283.6z M275.3,254.6c-1.6,0-3,1.3-3,3v16.1c0,1.6,1.3,3,3,3h16.1c1.6,0,3-1.3,3-3v-16.1
		c0-1.6-1.3-3-3-3H275.3z"/>
	<path class="st9" d="M335.1,283.6H319c-5.6,0-10.1-4.6-10.1-10.1v-16.1c0-5.6,4.6-10.1,10.1-10.1h16.1c5.6,0,10.1,4.6,10.1,10.1
		v16.1C345,279.2,340.6,283.6,335.1,283.6z M319,254.6c-1.6,0-3,1.3-3,3v16.1c0,1.6,1.3,3,3,3h16.1c1.6,0,3-1.3,3-3v-16.1
		c0-1.6-1.3-3-3-3H319z"/>
	<path class="st9" d="M160.6,327.3h-16.1c-5.6,0-10.1-4.6-10.1-10.1v-16.1c0-5.5,4.6-10.1,10.1-10.1h16.1c5.6,0,10.1,4.6,10.1,10.1
		v16.1C170.5,322.8,166.1,327.3,160.6,327.3z M144.5,298.2c-1.6,0-3,1.3-3,3v16.1c0,1.6,1.3,3,3,3h16.1c1.6,0,3-1.3,3-3v-16.1
		c0-1.6-1.3-3-3-3H144.5z"/>
	<path class="st9" d="M204.1,327.3H188c-5.6,0-10.1-4.6-10.1-10.1v-16.1c0-5.5,4.6-10.1,10.1-10.1h16.1c5.6,0,10.1,4.6,10.1,10.1
		v16.1C214.2,322.8,209.7,327.3,204.1,327.3z M188,298.2c-1.6,0-3,1.3-3,3v16.1c0,1.6,1.3,3,3,3h16.1c1.6,0,3-1.3,3-3v-16.1
		c0-1.6-1.3-3-3-3H188z"/>
	<path class="st9" d="M247.8,327.3h-16.1c-5.6,0-10.1-4.6-10.1-10.1v-16.1c0-5.5,4.6-10.1,10.1-10.1h16.1c5.6,0,10.1,4.6,10.1,10.1
		v16.1C257.8,322.8,253.4,327.3,247.8,327.3z M231.7,298.2c-1.6,0-3,1.3-3,3v16.1c0,1.6,1.3,3,3,3h16.1c1.6,0,3-1.3,3-3v-16.1
		c0-1.6-1.3-3-3-3H231.7z"/>
	<path class="st9" d="M160.6,370.9h-16.1c-5.6,0-10.1-4.6-10.1-10.1v-16.1c0-5.6,4.6-10.1,10.1-10.1h16.1c5.6,0,10.1,4.6,10.1,10.1
		v16.1C170.5,366.5,166.1,370.9,160.6,370.9z M144.5,341.9c-1.6,0-3,1.3-3,3v16.1c0,1.6,1.3,3,3,3h16.1c1.6,0,3-1.3,3-3v-16.1
		c0-1.6-1.3-3-3-3H144.5z"/>
	<path class="st9" d="M204.1,370.9H188c-5.6,0-10.1-4.6-10.1-10.1v-16.1c0-5.6,4.6-10.1,10.1-10.1h16.1c5.6,0,10.1,4.6,10.1,10.1
		v16.1C214.2,366.5,209.7,370.9,204.1,370.9z M188,341.9c-1.6,0-3,1.3-3,3v16.1c0,1.6,1.3,3,3,3h16.1c1.6,0,3-1.3,3-3v-16.1
		c0-1.6-1.3-3-3-3H188z"/>
	<path class="st9" d="M247.8,370.9h-16.1c-5.6,0-10.1-4.6-10.1-10.1v-16.1c0-5.6,4.6-10.1,10.1-10.1h16.1c5.6,0,10.1,4.6,10.1,10.1
		v16.1C257.8,366.5,253.4,370.9,247.8,370.9z M231.7,341.9c-1.6,0-3,1.3-3,3v16.1c0,1.6,1.3,3,3,3h16.1c1.6,0,3-1.3,3-3v-16.1
		c0-1.6-1.3-3-3-3H231.7z"/>
	<path class="st9" d="M160.6,414.6h-16.1c-5.6,0-10.1-4.6-10.1-10.1v-16.1c0-5.6,4.6-10.1,10.1-10.1h16.1c5.6,0,10.1,4.6,10.1,10.1
		v16.1C170.5,410,166.1,414.6,160.6,414.6z M144.5,385.4c-1.6,0-3,1.3-3,3v16.1c0,1.6,1.3,3,3,3h16.1c1.6,0,3-1.3,3-3v-16.1
		c0-1.6-1.3-3-3-3H144.5z"/>
	<path class="st9" d="M204.1,414.6H188c-5.6,0-10.1-4.6-10.1-10.1v-16.1c0-5.6,4.6-10.1,10.1-10.1h16.1c5.6,0,10.1,4.6,10.1,10.1
		v16.1C214.2,410,209.7,414.6,204.1,414.6z M188,385.4c-1.6,0-3,1.3-3,3v16.1c0,1.6,1.3,3,3,3h16.1c1.6,0,3-1.3,3-3v-16.1
		c0-1.6-1.3-3-3-3H188z"/>
	<path class="st9" d="M247.8,414.6h-16.1c-5.6,0-10.1-4.6-10.1-10.1v-16.1c0-5.6,4.6-10.1,10.1-10.1h16.1c5.6,0,10.1,4.6,10.1,10.1
		v16.1C257.8,410,253.4,414.6,247.8,414.6z M231.7,385.4c-1.6,0-3,1.3-3,3v16.1c0,1.6,1.3,3,3,3h16.1c1.6,0,3-1.3,3-3v-16.1
		c0-1.6-1.3-3-3-3H231.7z"/>
	<path class="st9" d="M378.6,283.6h-16.1c-5.6,0-10.1-4.6-10.1-10.1v-16.1c0-5.6,4.6-10.1,10.1-10.1h16.1c5.5,0,10.1,4.6,10.1,10.1
		v16.1C388.7,279.1,384.2,283.6,378.6,283.6z M362.6,254.6c-1.6,0-3,1.3-3,3v16.1c0,1.6,1.3,3,3,3h16.1c1.6,0,3-1.3,3-3v-16.1
		c0-1.6-1.3-3-3-3H362.6z"/>
	<path class="st9" d="M289.4,327.3h-14.1c-5.5,0-10.1-4.6-10.1-10.1v-16.1c0-5.5,4.6-10.1,10.1-10.1h16.1c5.6,0,10.1,4.6,10.1,10.1
		v12.2c0,1-0.4,1.8-1,2.4c-3,3.1-5.7,6.4-8.1,10C291.7,326.8,290.5,327.3,289.4,327.3z M275.3,298.2c-1.6,0-3,1.3-3,3v16.1
		c0,1.6,1.3,3,3,3h12.2c2.1-2.8,4.4-5.7,6.8-8.3v-10.8c0-1.6-1.3-3-3-3H275.3z"/>
	<path class="st9" d="M354.4,451H115.2c-6.8,0-12.2-5.6-12.2-12.2V222.4c0-2,1.6-3.6,3.6-3.6h311c2,0,3.6,1.6,3.6,3.6v98.4
		c0,2-1.6,3.6-3.6,3.6c-1.1,0-2.1-0.6-2.8-1.4c-25.2-33.2-72.5-39.9-105.6-14.7c-33.2,25.2-39.9,72.5-14.7,105.6
		c14.2,18.8,36.6,29.9,60.2,29.9c2,0,3.6,1.6,3.6,3.6C358.1,449.3,356.4,451,354.4,451z M110,226v212.8c0,2.8,2.3,5.1,5.1,5.1H321
		c-41.7-18.5-60.5-67.3-41.8-109c13.2-29.7,42.8-49,75.4-49c22.5-0.1,44,9.1,59.5,25.2V226H110z"/>
	<path class="st9" d="M354.4,363.9c-2,0-3.6-1.6-3.6-3.6v-39.1c0-2,1.6-3.6,3.6-3.6c2,0,3.6,1.6,3.6,3.6v39.1
		C358,362.4,356.4,363.9,354.4,363.9z"/>
	<path class="st9" d="M327.1,395.2c-2,0-3.6-1.6-3.6-3.6c0-1,0.4-2,1.3-2.7l22.1-18.5c1.6-1.3,3.7-1,5,0.4c1.3,1.6,1,3.7-0.4,5
		l-22.1,18.5C328.7,395,328,395.2,327.1,395.2z"/>
	<path class="st9" d="M323,276.7c-1,0-2-0.4-2.6-1.1l-6-6.5c-1.3-1.4-1.3-3.7,0.3-5c1.4-1.3,3.7-1.3,5,0.3l3.6,3.8l11.1-11.1
		c1.4-1.4,3.7-1.3,5,0.1c1.3,1.4,1.3,3.6,0,5l-13.7,13.7C324.8,276.2,324,276.7,323,276.7z"/>
	<path class="st9" d="M367.1,276.7c-1,0-2-0.4-2.6-1.1l-6-6.5c-1.3-1.4-1.3-3.7,0.3-5c1.4-1.3,3.7-1.3,5,0.3l3.6,3.8l11.1-11.1
		c1.4-1.4,3.7-1.3,5,0.1c1.3,1.4,1.3,3.6,0,5l-13.7,13.7C369,276.2,368.1,276.7,367.1,276.7z"/>
	<path class="st9" d="M149.3,319.4c-1,0-2-0.4-2.6-1.1l-6-6.5c-1.3-1.4-1.3-3.7,0.3-5c1.4-1.3,3.7-1.3,5,0.3l3.6,3.8l11.1-11.1
		c1.4-1.4,3.6-1.4,5-0.1c1.4,1.4,1.4,3.6,0.1,5c0,0,0,0-0.1,0.1L152,318.4C151.2,318.9,150.3,319.4,149.3,319.4z"/>
	<path class="st9" d="M192,319.4c-1,0-2-0.4-2.6-1.1l-6-6.5c-1.3-1.4-1.3-3.7,0.3-5c1.4-1.3,3.7-1.3,5,0.3l3.6,3.8l11.1-11.1
		c1.4-1.4,3.6-1.4,5-0.1c1.4,1.3,1.4,3.6,0.1,5c0,0,0,0-0.1,0.1l-13.7,13.7C193.9,318.9,193,319.4,192,319.4z"/>
	<path class="st9" d="M236.2,319.4c-1,0-2-0.4-2.6-1.1l-6-6.5c-1.3-1.4-1.3-3.7,0.3-5c1.4-1.3,3.7-1.3,5,0.3l3.6,3.8l11.1-11.1
		c1.4-1.4,3.6-1.4,5-0.1c1.4,1.3,1.4,3.6,0.1,5c0,0,0,0-0.1,0.1l-13.7,13.7C238,318.9,237.2,319.4,236.2,319.4z"/>
	<path class="st9" d="M354.4,451c-45.5,0-82.6-37-82.6-82.6s37-82.6,82.6-82.6s82.6,37,82.6,82.6S400,451,354.4,451z M354.4,293
		c-41.7,0-75.4,33.7-75.4,75.4s33.7,75.4,75.4,75.4c41.7,0,75.4-33.7,75.4-75.4S396.1,293,354.4,293z"/>
	<path class="st9" d="M354.4,433.2c-35.7,0-64.8-29-64.8-64.8s29-64.8,64.8-64.8c35.7,0,64.8,29,64.8,64.8S390.2,433.2,354.4,433.2z
		 M354.4,310.8c-31.9,0-57.6,25.8-57.6,57.6s25.8,57.6,57.6,57.6c31.9,0,57.6-25.8,57.6-57.6S386.3,310.8,354.4,310.8z"/>
	<path class="st9" d="M354.4,379.2c-5.8,0-10.7-4.8-10.7-10.7s4.8-10.7,10.7-10.7c5.8,0,10.7,4.8,10.7,10.7S360.4,379.2,354.4,379.2
		z M354.4,364.9c-2,0-3.6,1.6-3.6,3.6c0,2,1.6,3.6,3.6,3.6c2,0,3.6-1.6,3.6-3.6C358,366.5,356.4,364.9,354.4,364.9z"/>
</g>
</svg>
