<?xml version="1.0" encoding="utf-8"?>
<!-- Generator: Adobe Illustrator 22.0.1, SVG Export Plug-In . SVG Version: 6.00 Build 0)  -->
<svg version="1.1" id="Capa_1" xmlns="http://www.w3.org/2000/svg" xmlns:xlink="http://www.w3.org/1999/xlink" x="0px" y="0px"
	 viewBox="0 0 512 512" style="enable-background:new 0 0 512 512;" xml:space="preserve">
<style type="text/css">
	.st0{fill:#3FB777;}
	.st1{fill:#F74F4F;}
	.st2{fill:#F2F0EC;}
	.st3{fill:#3D4159;}
	.st4{fill:#DDE8ED;}
	.st5{fill:#BFD5DE;}
	.st6{fill:#2A2F4F;}
	.st7{fill:#EAB599;}
	.st8{fill:#F6CAAE;}
	.st9{fill:#FFE152;}
	.st10{fill:#FFFFFF;}
	.st11{fill:#DD3033;}
	.st12{fill:#D8D5D0;}
	.st13{fill:#E8C934;}
	.st14{fill:#54AAC5;stroke:#FFFFFF;stroke-width:6;stroke-miterlimit:10;}
</style>
<path class="st0" d="M512,256c0,62.4-22.3,119.5-59.4,163.9c-18.5,22.1-40.6,41.1-65.4,55.9c-9.3,5.5-18.9,10.5-28.9,14.9
	c-2.6,1.1-5.2,2.2-7.8,3.2c-1.3,0.5-2.7,1.1-4.1,1.6c-4.6,1.8-9.4,3.4-14.1,4.9c-4.4,1.4-8.9,2.7-13.5,3.8c-2.1,0.5-4.3,1-6.4,1.5
	c-1.2,0.3-2.4,0.5-3.7,0.8c-0.4,0.1-0.7,0.2-1.1,0.2c-4.6,1-9.3,1.8-14,2.5c-4.8,0.7-9.7,1.3-14.6,1.7c-7.6,0.7-15.2,1-23,1
	c-17.4,0-34.4-1.7-50.9-5.1C88.1,483.3,0,380,0,256C0,114.6,114.6,0,256,0S512,114.6,512,256z"/>
<path class="st1" d="M441.2,229.5c0,63.1-51.1,114.2-114.2,114.2c-63,0-114.2-51.1-114.2-114.2c0-63,51.1-114.2,114.2-114.2
	C390.1,115.3,441.2,166.4,441.2,229.5z"/>
<path class="st2" d="M415.6,229.5c0,48.9-39.7,88.6-88.6,88.6c-48.9,0-88.6-39.7-88.6-88.6c0-48.9,39.7-88.6,88.6-88.6
	C375.9,140.9,415.6,180.6,415.6,229.5z"/>
<path class="st1" d="M389.6,229.5c0,34.6-28,62.6-62.6,62.6c-34.6,0-62.6-28-62.6-62.6c0-34.6,28-62.6,62.6-62.6
	C361.6,166.9,389.6,194.9,389.6,229.5z"/>
<path class="st2" d="M359,229.5c0,17.7-14.3,32-32,32c-17.6,0-32-14.3-32-32c0-17.6,14.3-32,32-32C344.7,197.5,359,211.8,359,229.5z
	"/>
<path class="st1" d="M339.1,229.5c0,6.7-5.4,12-12,12c-6.7,0-12-5.4-12-12s5.4-12,12-12C333.7,217.4,339.1,222.8,339.1,229.5z"/>
<path class="st3" d="M284.2,451.2v43.9c-12.6,2.5-25.6,3.9-39,3.9c-60.5,0-114.5-27.4-150.5-70.4c7.6-23.2,26.6-41.3,50.3-47.6
	c1.1-0.3,2.3-0.6,3.4-0.8c3.1-0.7,6.3-1.1,9.5-1.4c2-0.2,3.9-0.2,6-0.2h47.4c5.3,0,10.5,0.6,15.4,1.6c0.3,0.1,0.6,0.1,0.9,0.2
	c0.8,0.2,1.7,0.4,2.5,0.6c0,0,0,0,0.1,0c8.2,2.2,15.8,5.8,22.6,10.5C271.8,404.5,284.2,426.4,284.2,451.2z"/>
<path class="st4" d="M230.5,380l-0.2,0.8l-24.5,114.1c-0.3-0.1-0.6-0.1-0.8-0.2c-2.6-0.5-5.2-1.1-7.7-1.8c-7.2-1.8-14.2-4-21.1-6.6
	c-1-0.4-2.1-0.8-3.1-1.2c-2-0.8-4-1.6-6-2.5l-21.9-101.8L145,380H230.5z"/>
<path class="st1" d="M207.3,404.6L187.7,436l-19.5-31.3"/>
<path class="st1" d="M204.9,494.8c-2.6-0.5-5.2-1.1-7.7-1.8c-7.2-1.8-14.2-4-21.1-6.6c-1-0.4-2.1-0.8-3.1-1.2l14.7-57.3L204.9,494.8
	z"/>
<path class="st5" d="M187.7,408.2l-32.8,18.2L145,380l20.4-12"/>
<path class="st5" d="M187.7,408.2l32.8,18.2l10-46.4l-20.4-12"/>
<path class="st6" d="M231.7,442.6h10.4L220,496.3c-1.2,0.2-2.4,0.4-3.5,0.5c-6.5-1-13-2.2-19.3-3.8l33.3-117l22.4,11.3L231.7,442.6z
	"/>
<path class="st6" d="M176.1,486.4c-10.9-4.1-21.3-9.2-31.2-15.1l-11.8-28.7h10.4l-21.2-55.3l22.7-10.5L176.1,486.4z"/>
<path class="st7" d="M213.7,350.3v31.9c0,11.7-7.7,21.5-18.3,24.8c-2.4,0.8-5,1.2-7.7,1.2c-14.3,0-26-11.6-26-26v-31.9H213.7z"/>
<path class="st8" d="M213.7,380.2v2c0,11.7-7.7,21.5-18.3,24.8c-9.6-2.9-16.8-11.3-18.1-21.4c1.7,0.1,3.5,0.2,5.2,0.2
	c4.9,0,9.7-0.4,14.4-1.2C202.8,383.7,208.3,382.2,213.7,380.2z"/>
<path class="st8" d="M116.5,298.1c0,12-8.8,22-20.3,23.8c-1.3,0.2-2.5,0.3-3.9,0.3c-13.3,0-24.2-10.8-24.2-24.2
	c0-13.3,10.8-24.2,24.2-24.2c1.3,0,2.6,0.1,3.9,0.3C107.7,276.1,116.5,286.1,116.5,298.1z"/>
<path class="st7" d="M116.5,298.1c0,12-8.8,22-20.3,23.8c-2.1-7.6-3.2-15.6-3.2-23.8c0-8.3,1.1-16.2,3.2-23.8
	C107.7,276.1,116.5,286.1,116.5,298.1z"/>
<path class="st7" d="M101,298.1c0,4.8-3.9,8.6-8.6,8.6s-8.6-3.9-8.6-8.6c0-4.8,3.9-8.6,8.6-8.6S101,293.3,101,298.1z"/>
<path class="st8" d="M259,298.1c0,12,8.8,22,20.3,23.8c1.3,0.2,2.5,0.3,3.9,0.3c13.3,0,24.2-10.8,24.2-24.2
	c0-13.3-10.8-24.2-24.2-24.2c-1.3,0-2.6,0.1-3.9,0.3C267.8,276.1,259,286.1,259,298.1z"/>
<path class="st7" d="M259,298.1c0,12,8.8,22,20.3,23.8c2.1-7.6,3.2-15.6,3.2-23.8c0-8.3-1.1-16.2-3.2-23.8
	C267.8,276.1,259,286.1,259,298.1z"/>
<path class="st7" d="M277.6,251v34.2c0,44.7-32.7,81.8-75.4,88.7c-0.1,0-0.3,0-0.4,0.1c-4.5,0.7-9.2,1.1-14,1.1
	c-49.6,0-89.9-40.2-89.9-89.9v-34.4c0-10.4,1.8-20.4,5.1-29.7c12.3-35,45.6-60,84.8-60h0c4.8,0,9.4,0.4,14,1.1
	C244.7,169,277.6,206.2,277.6,251z"/>
<path class="st7" d="M291.8,298.1c0,4.8-3.9,8.6-8.6,8.6c-4.8,0-8.6-3.9-8.6-8.6c0-4.8,3.9-8.6,8.6-8.6
	C287.9,289.5,291.8,293.3,291.8,298.1z"/>
<path class="st8" d="M277.6,251v34.2c0,44.7-32.7,81.8-75.4,88.7c-0.1,0-0.3,0-0.4,0.1c-43-6.7-75.9-43.9-75.9-88.8V251
	c0-44.9,32.9-82.1,75.9-88.8C244.7,169,277.6,206.2,277.6,251z"/>
<path class="st7" d="M163.9,266.3h59.8v32.6h-59.8V266.3z"/>
<path class="st4" d="M127.5,277.4L127.5,277.4c0.2,13.7,11.3,24.7,25,24.8c0.6,0,1.2,0,1.8,0c13.8-0.2,24.8-11.5,24.8-25.2v0.4v-8
	l-0.3-9.9c0-1.4-0.9-2.5-2.2-3c-15.2-5.3-31.8-5.3-47,0.1c-1.3,0.5-2.2,1.7-2.2,3.1v18.1"/>
<path class="st3" d="M131.5,277.8h-8v-18.1c0-3.1,1.9-5.8,4.8-6.8c16-5.6,33.6-5.7,49.6-0.1c2.8,1,4.8,3.7,4.9,6.6l0.3,10v8h-8v-7.9
	l-0.3-9.3c-14-4.8-29.4-4.7-43.4,0.1V277.8z"/>
<path class="st9" d="M153.3,306.2c-0.3,0-0.6,0-0.9,0c-16-0.2-28.7-12.8-28.9-28.8l4-0.1h4c0.2,11.5,9.4,20.7,21,20.8
	c0.6,0,1.1,0,1.7,0c11.5-0.2,20.9-9.7,20.9-21.2h8c0,15.9-12.9,29-28.8,29.2C154,306.2,153.6,306.2,153.3,306.2z"/>
<path class="st4" d="M198.2,277.4L198.2,277.4c0.2,13.7,11.3,24.7,25,24.8c0.6,0,1.2,0,1.8,0c13.8-0.2,24.8-11.5,24.8-25.2v0.4v-8
	l-0.3-9.9c0-1.4-0.9-2.5-2.2-3c-15.2-5.3-31.8-5.3-47,0.1c-1.3,0.5-2.2,1.7-2.2,3.1v18.1"/>
<path class="st3" d="M202.2,277.8h-8v-18.1c0-3.1,1.9-5.8,4.8-6.8c16-5.6,33.6-5.7,49.6-0.1c2.8,1,4.8,3.7,4.9,6.6l0.3,10v8h-8v-7.9
	l-0.3-9.3c-14-4.8-29.4-4.7-43.4,0.1L202.2,277.8L202.2,277.8z"/>
<path class="st9" d="M224,306.2c-0.3,0-0.6,0-0.9,0c-16-0.2-28.7-12.8-28.9-28.8l4-0.1h4c0.2,11.5,9.4,20.7,21,20.8
	c0.6,0,1.1,0,1.7,0c11.5-0.2,20.9-9.7,20.9-21.2h8c0,15.9-12.9,29-28.8,29.2C224.7,306.2,224.4,306.2,224,306.2z"/>
<g>
	<path class="st3" d="M178.8,259.5h19.4v8h-19.4V259.5z"/>
	<path class="st3" d="M277.6,251.8v8.4l-21.7,6.9l-0.1,0l-4.8,1.6l-2.5-7.6l6.1-2l0.1,0L277.6,251.8z"/>
	<path class="st3" d="M128.7,261.1l-2.5,7.6l-5.5-1.8l-22.9-7.5v-8.4l24.1,7.9L128.7,261.1z"/>
	<path class="st3" d="M168.6,276c0,5.6-4.6,10.2-10.2,10.2c-5.6,0-10.2-4.6-10.2-10.2c0-5.6,4.6-10.2,10.2-10.2
		C164,265.8,168.6,270.4,168.6,276z"/>
	<path class="st3" d="M227.2,276c0,5.6-4.6,10.2-10.2,10.2c-5.6,0-10.2-4.6-10.2-10.2c0-5.6,4.6-10.2,10.2-10.2
		C222.7,265.8,227.2,270.4,227.2,276z"/>
</g>
<path class="st10" d="M166.5,274.2c0,2.4-2,4.4-4.4,4.4c-2.4,0-4.4-2-4.4-4.4c0-2.4,2-4.4,4.4-4.4
	C164.5,269.9,166.5,271.8,166.5,274.2z"/>
<path class="st10" d="M225.7,274.2c0,2.4-2,4.4-4.4,4.4c-2.4,0-4.4-2-4.4-4.4c0-2.4,2-4.4,4.4-4.4
	C223.7,269.9,225.7,271.8,225.7,274.2z"/>
<path class="st7" d="M199.7,303.3h-22.3c-2.4,0-4.4-2-4.4-4.4c0-2.4,2-4.4,4.4-4.4h22.3c2.4,0,4.4,2,4.4,4.4
	C204.1,301.3,202.1,303.3,199.7,303.3z"/>
<path class="st7" d="M187.7,329.5c-7.5,0-15.1-1.9-21.9-5.7c-1.9-1.1-2.6-3.5-1.6-5.4c1.1-1.9,3.5-2.6,5.4-1.6
	c11.3,6.2,24.8,6.2,36.1,0c1.9-1.1,4.4-0.4,5.4,1.6c1.1,1.9,0.4,4.4-1.6,5.4C202.8,327.6,195.2,329.5,187.7,329.5z"/>
<path class="st6" d="M277.6,220V255h-16.7v-27.5l-120.7-22.4l-25.5-4.7V255H97.9V220c0-40,32.4-72.4,72.3-72.4h35c1,0,1.9,0,2.9,0.1
	C246.7,149.2,277.6,181,277.6,220z"/>
<path class="st3" d="M277.6,220V255h-16.7v-27.5l-120.7-22.4c6.7-32,34.4-56.2,68-57.5C246.7,149.2,277.6,181,277.6,220z"/>
<path class="st11" d="M434.3,193.7L413.2,179l-2.4-25.6l-36,21.1l1.6,16.8L323,222.6l8.1,13.8l53.4-31.2l13.9,9.6L434.3,193.7z"/>
<path class="st11" d="M434.3,193.7L413.2,179l-2.4-25.6l-36,21.1l1.6,16.8L323,222.6l8.1,13.8l53.4-31.2l13.9,9.6L434.3,193.7z"/>
<path class="st12" d="M412.5,206.5l-14.2,8.3l-13.5-9.3c-2.2-5.3-5.1-10.1-8.5-14.6v0l-1.5-16.3l14.2-8.3
	C400.1,177.1,408.4,190.9,412.5,206.5z"/>
<path class="st13" d="M353.6,158.6l29.5-29.5l8.8,24.2l-29.5,29.5L353.6,158.6z"/>
<path class="st3" d="M403.3,164.5l-69,69c-3.1,3.1-8.2,3.1-11.3,0c-3.1-3.1-3.1-8.2,0-11.3l69-69L403.3,164.5z"/>
<path class="st9" d="M392.3,197.2l29.5-29.5l-24.2-8.8l-29.5,29.5L392.3,197.2z"/>
<path class="st7" d="M262.9,446.2v24.1c0,4.1,2.5,7.7,6.2,9.1c1.1,0.5,2.4,0.7,3.7,0.7c5.4,0,9.8-4.4,9.8-9.8v-24.1
	c0-5.4-4.4-9.8-9.8-9.8c-1.3,0-2.5,0.3-3.7,0.7c-1.2,0.5-2.4,1.2-3.3,2.2C264,441.1,262.9,443.5,262.9,446.2z"/>
<path class="st8" d="M262.9,446.2v42.7c0,4.1,2.5-10.9,6.2-9.5c3.6-1.4,6.2-5,6.2-9.1v-24.1c0-4.1-2.5-7.7-6.2-9.1
	c-1.2,0.5-2.4,1.2-3.3,2.2C264,441.1,262.9,443.5,262.9,446.2z"/>
<path class="st7" d="M303.6,478.4v11.7c-3.4,1.1-6.8,2-10.3,2.9c-1.6,0.4-3.3,0.8-4.9,1.2c-0.9,0.2-1.9,0.4-2.8,0.6
	c-0.3,0.1-0.6,0.1-0.8,0.2c-3.5,0.7-7.1,1.4-10.7,1.9c-3.7,0.5-7.4,1-11.2,1.3v-19.8c0-5.6,2.3-10.7,6-14.4c1.9-1.9,4.2-3.5,6.8-4.5
	c2.3-0.9,4.9-1.5,7.6-1.5C294.5,458,303.6,467.1,303.6,478.4z"/>
<path class="st8" d="M288.5,478.4v15.8c-0.9,0.2-1.9,0.4-2.8,0.6c-0.3,0.1-0.6,0.1-0.8,0.2c-3.5,0.7-7.1,1.4-10.7,1.9
	c-3.7,0.5-7.4,1-11.2,1.3v-19.8c0-5.6,2.3-10.7,6-14.4c1.9-1.9,4.2-3.5,6.8-4.5C283.2,462.5,288.5,469.8,288.5,478.4z"/>
<g>
	<g>
		<path class="st10" d="M115.8,48.1h9c5.7,0,10.4,2.1,10.4,8.4c0,6.1-4.7,8.8-10.2,8.8h-3.2v8.8h-5.9V48.1z M124.6,60.6
			c3.2,0,4.8-1.4,4.8-4.2c0-2.7-1.7-3.7-4.9-3.7h-2.7v7.9H124.6z"/>
		<path class="st10" d="M138,64.2c0-6.4,4.6-10.4,9.4-10.4c5.7,0,8.5,4.1,8.5,9.5c0,1.1-0.1,2.1-0.2,2.6h-11.9
			c0.5,2.9,2.5,4.2,5.1,4.2c1.5,0,2.9-0.5,4.3-1.3l1.9,3.5c-2,1.4-4.7,2.2-7,2.2C142.4,74.6,138,70.8,138,64.2z M150.8,62.1
			c0-2.2-0.9-3.8-3.3-3.8c-1.9,0-3.5,1.2-3.9,3.8H150.8z"/>
		<path class="st10" d="M159.9,54.3h4.8l0.4,3.5h0.1c1.4-2.6,3.6-3.9,5.6-3.9c1.1,0,1.8,0.1,2.4,0.4l-1,5.1
			c-0.7-0.2-1.3-0.3-2.1-0.3c-1.5,0-3.3,1-4.4,3.7v11.5h-5.9V54.3z"/>
		<path class="st10" d="M174.2,54.5l3-0.2h9.1v4.6h-12.1V54.5z M176.8,53.3c0-4.2,1.9-7.6,7.3-7.6c1.7,0,3.1,0.4,4,0.7l-1.1,4.3
			c-0.7-0.3-1.4-0.4-2.1-0.4c-1.4,0-2.3,0.8-2.3,2.8v21h-5.9V53.3z"/>
		<path class="st10" d="M189,48.3c0-1.8,1.4-3.1,3.4-3.1s3.4,1.3,3.4,3.1c0,1.8-1.4,3.1-3.4,3.1S189,50.1,189,48.3z M189.4,54.3h5.9
			v19.8h-5.9V54.3z"/>
		<path class="st10" d="M200.5,68V46.1h5.9v22.1c0,1.3,0.6,1.7,1.1,1.7c0.2,0,0.4,0,0.7-0.1l0.7,4.3c-0.6,0.3-1.6,0.5-3,0.5
			C201.9,74.6,200.5,72,200.5,68z"/>
		<path class="st10" d="M220.4,48.1h16.3V53h-10.4v5.2h8.9v4.9h-8.9v6h10.8v4.9h-16.7V48.1z"/>
		<path class="st10" d="M240.1,71.9l2.6-3.7c1.8,1.4,3.5,2.1,5.1,2.1c1.8,0,2.5-0.7,2.5-1.7c0-1.3-2-1.9-4-2.7
			c-2.4-0.9-5.3-2.6-5.3-5.8c0-3.7,3-6.2,7.6-6.2c3,0,5.3,1.2,7,2.5l-2.6,3.5c-1.4-1-2.8-1.7-4.2-1.7c-1.5,0-2.3,0.6-2.3,1.6
			c0,1.3,1.9,1.7,3.9,2.5c2.5,0.9,5.3,2.3,5.3,6c0,3.6-2.8,6.4-8.2,6.4C245.1,74.6,242.1,73.5,240.1,71.9z"/>
		<path class="st10" d="M260.4,66.9v-8h-2.7v-4.4l3-0.2l0.7-5.3h4.9v5.3h4.8v4.6h-4.8v7.9c0,2.2,1,3.2,2.6,3.2
			c0.7,0,1.4-0.2,1.9-0.4l0.9,4.3c-1.1,0.3-2.5,0.7-4.4,0.7C262.3,74.6,260.4,71.5,260.4,66.9z"/>
		<path class="st10" d="M274.7,66.6V54.3h5.9v11.6c0,2.9,0.8,3.7,2.5,3.7c1.5,0,2.4-0.6,3.5-2.2V54.3h5.9v19.8h-4.8l-0.4-2.8h-0.1
			c-1.7,2-3.5,3.2-6.2,3.2C276.5,74.6,274.7,71.6,274.7,66.6z"/>
		<path class="st10" d="M296.6,64.2c0-6.5,4.1-10.4,8.2-10.4c2.2,0,3.5,0.8,4.9,2.1l-0.2-3v-6.8h5.9v28h-4.8l-0.4-2H310
			c-1.4,1.4-3.4,2.4-5.3,2.4C299.8,74.6,296.6,70.7,296.6,64.2z M309.5,68.1v-8.1c-1-0.9-2.2-1.3-3.3-1.3c-1.9,0-3.6,1.8-3.6,5.5
			c0,3.9,1.3,5.6,3.6,5.6C307.5,69.8,308.5,69.4,309.5,68.1z"/>
		<path class="st10" d="M320.1,48.3c0-1.8,1.4-3.1,3.4-3.1c2,0,3.4,1.3,3.4,3.1c0,1.8-1.4,3.1-3.4,3.1
			C321.5,51.4,320.1,50.1,320.1,48.3z M320.5,54.3h5.9v19.8h-5.9V54.3z"/>
		<path class="st10" d="M330.7,68.7c0-4.2,3.3-6.4,11.2-7.3c-0.1-1.7-1-2.9-3.1-2.9c-1.7,0-3.3,0.7-5.3,1.8l-2.1-3.9
			c2.5-1.5,5.4-2.6,8.5-2.6c5.1,0,7.9,2.9,7.9,9v11.3h-4.8l-0.4-2h-0.1c-1.7,1.5-3.5,2.5-5.8,2.5C333,74.6,330.7,72,330.7,68.7z
			 M341.8,68.4v-3.5c-4.2,0.6-5.5,1.8-5.5,3.3c0,1.3,0.9,1.9,2.3,1.9C339.9,70.1,340.8,69.4,341.8,68.4z"/>
		<path class="st10" d="M352.7,54.3h4.8l0.4,2.5h0.1c1.7-1.6,3.7-3,6.4-3c4.3,0,6.2,3,6.2,8v12.3h-5.9V62.6c0-2.9-0.8-3.7-2.5-3.7
			c-1.5,0-2.4,0.7-3.7,1.9v13.4h-5.9V54.3z"/>
		<path class="st10" d="M376.4,66.9v-8h-2.7v-4.4l3-0.2l0.7-5.3h4.9v5.3h4.8v4.6h-4.8v7.9c0,2.2,1,3.2,2.6,3.2
			c0.7,0,1.4-0.2,1.9-0.4l0.9,4.3c-1.1,0.3-2.5,0.7-4.4,0.7C378.3,74.6,376.4,71.5,376.4,66.9z"/>
		<path class="st10" d="M389.7,64.2c0-6.4,4.6-10.4,9.4-10.4c5.7,0,8.5,4.1,8.5,9.5c0,1.1-0.1,2.1-0.2,2.6h-11.9
			c0.5,2.9,2.5,4.2,5.1,4.2c1.5,0,2.9-0.5,4.3-1.3l1.9,3.5c-2,1.4-4.7,2.2-7,2.2C394.1,74.6,389.7,70.8,389.7,64.2z M402.5,62.1
			c0-2.2-1-3.8-3.3-3.8c-1.9,0-3.5,1.2-3.9,3.8H402.5z"/>
	</g>
</g>
<line class="st14" x1="121.7" y1="84.6" x2="397" y2="84.6"/>
</svg>
