<?xml version="1.0" encoding="utf-8"?>
<!-- Generator: Adobe Illustrator 22.0.1, SVG Export Plug-In . SVG Version: 6.00 Build 0)  -->
<svg version="1.1" id="Capa_1" xmlns="http://www.w3.org/2000/svg" xmlns:xlink="http://www.w3.org/1999/xlink" x="0px" y="0px"
	 viewBox="0 0 512 512" style="enable-background:new 0 0 512 512;" xml:space="preserve">
<style type="text/css">
	.st0{fill:#3FB777;}
	.st1{fill:#FFFFFF;}
	.st2{fill:#54AAC5;stroke:#FFFFFF;stroke-width:6;stroke-miterlimit:10;}
	.st3{fill:#91E0E8;}
	.st4{fill:#5DC1D8;}
	.st5{fill:#0F9390;}
	.st6{fill:#D9EAFC;}
	.st7{fill:#FE3745;}
	.st8{fill:#B7092B;}
	.st9{fill:#52BBEF;}
	.st10{fill:#1E99D6;}
	.st11{fill:#EF8318;}
	.st12{fill:#DB722C;}
</style>
<path class="st0" d="M512,256c0,62.4-22.3,119.5-59.4,163.9c-18.5,22.1-40.6,41.1-65.4,55.9c-9.3,5.5-18.9,10.5-28.9,14.9
	c-2.6,1.1-5.2,2.2-7.8,3.2c-1.3,0.5-2.7,1.1-4.1,1.6c-4.6,1.8-9.4,3.4-14.1,4.9c-4.4,1.4-8.9,2.7-13.5,3.8c-2.1,0.5-4.3,1-6.4,1.5
	c-1.2,0.3-2.4,0.5-3.7,0.8c-0.4,0.1-0.7,0.2-1.1,0.2c-4.6,1-9.3,1.8-14,2.5c-4.8,0.7-9.7,1.3-14.6,1.7c-7.6,0.7-15.2,1-23,1
	c-17.4,0-34.4-1.7-50.9-5.1C88.1,483.3,0,380,0,256C0,114.6,114.6,0,256,0S512,114.6,512,256z"/>
<g>
	<g>
		<path class="st1" d="M110.2,56.3h8.2c4.8,0,8.8,1.7,8.8,7.1c0,5.2-4,7.5-8.8,7.5h-3.1v8.2h-5.2V56.3z M118,66.9
			c2.7,0,4.2-1.2,4.2-3.4c0-2.3-1.5-3-4.2-3h-2.6v6.4H118z M117.5,69.6l3.6-3.3l7.3,12.9h-5.8L117.5,69.6z"/>
		<path class="st1" d="M130.3,70.5c0-5.6,4-9.1,8.2-9.1c4.9,0,7.4,3.6,7.4,8.3c0,0.9-0.1,1.9-0.2,2.3h-10.4c0.5,2.5,2.2,3.7,4.5,3.7
			c1.3,0,2.5-0.4,3.8-1.1l1.7,3.1c-1.8,1.2-4.1,2-6.2,2C134.1,79.6,130.3,76.2,130.3,70.5z M141.4,68.6c0-1.9-0.8-3.3-2.9-3.3
			c-1.6,0-3,1.1-3.4,3.3H141.4z"/>
		<path class="st1" d="M148.4,70.5c0-5.8,4.3-9.1,9-9.1c2.1,0,3.8,0.8,5.1,1.9l-2.4,3.3c-0.8-0.7-1.5-1-2.4-1c-2.5,0-4.1,2-4.1,5
			s1.7,4.9,3.9,4.9c1.1,0,2.2-0.6,3.1-1.3l2,3.4c-1.7,1.5-3.8,2.1-5.7,2.1C152.1,79.6,148.4,76.2,148.4,70.5z"/>
		<path class="st1" d="M165.6,72.6V61.8h5.1v10.1c0,2.5,0.7,3.3,2.2,3.3c1.3,0,2.1-0.5,3.1-1.9V61.8h5.1v17.4h-4.2l-0.4-2.4h-0.1
			c-1.4,1.7-3.1,2.8-5.5,2.8C167.2,79.6,165.6,76.9,165.6,72.6z"/>
		<path class="st1" d="M185.6,61.8h4.2l0.4,3h0.1c1.3-2.3,3.2-3.5,4.9-3.5c1,0,1.6,0.1,2.1,0.4l-0.9,4.4c-0.6-0.2-1.1-0.3-1.9-0.3
			c-1.3,0-2.9,0.8-3.8,3.2v10.1h-5.1V61.8z"/>
		<path class="st1" d="M198,77.2l2.3-3.2c1.6,1.2,3,1.8,4.5,1.8c1.5,0,2.2-0.6,2.2-1.5c0-1.1-1.7-1.7-3.5-2.4
			c-2.1-0.8-4.6-2.2-4.6-5.1c0-3.2,2.6-5.4,6.6-5.4c2.7,0,4.6,1.1,6.1,2.2l-2.3,3.1c-1.2-0.9-2.5-1.5-3.7-1.5c-1.3,0-2,0.5-2,1.4
			c0,1.1,1.6,1.5,3.4,2.2c2.2,0.8,4.7,2.1,4.7,5.2c0,3.1-2.5,5.6-7.1,5.6C202.4,79.6,199.8,78.6,198,77.2z"/>
		<path class="st1" d="M214.1,70.5c0-5.8,4.1-9.1,8.5-9.1c4.4,0,8.5,3.3,8.5,9.1c0,5.8-4.1,9.1-8.5,9.1
			C218.1,79.6,214.1,76.2,214.1,70.5z M225.7,70.5c0-3-1.1-5-3.2-5s-3.2,2-3.2,5s1.1,4.9,3.2,4.9S225.7,73.5,225.7,70.5z"/>
		<path class="st1" d="M233,77.2l2.3-3.2c1.6,1.2,3,1.8,4.5,1.8c1.5,0,2.2-0.6,2.2-1.5c0-1.1-1.7-1.7-3.5-2.4
			c-2.1-0.8-4.6-2.2-4.6-5.1c0-3.2,2.6-5.4,6.6-5.4c2.7,0,4.6,1.1,6.1,2.2l-2.3,3.1c-1.2-0.9-2.5-1.5-3.7-1.5c-1.3,0-2,0.5-2,1.4
			c0,1.1,1.6,1.5,3.4,2.2c2.2,0.8,4.7,2.1,4.7,5.2c0,3.1-2.5,5.6-7.1,5.6C237.3,79.6,234.7,78.6,233,77.2z"/>
		<path class="st1" d="M257.4,56.3h6.5c7,0,11.5,3.5,11.5,11.3s-4.5,11.5-11.2,11.5h-6.7V56.3z M263.6,75c3.9,0,6.5-1.9,6.5-7.4
			s-2.6-7.2-6.5-7.2h-1V75H263.6z"/>
		<path class="st1" d="M278.8,56.6c0-1.6,1.3-2.7,3-2.7c1.7,0,3,1.1,3,2.7c0,1.6-1.3,2.7-3,2.7C280.1,59.3,278.8,58.1,278.8,56.6z
			 M279.2,61.8h5.1v17.4h-5.1V61.8z"/>
		<path class="st1" d="M288,70.5c0-5.7,3.5-9.1,7.2-9.1c1.9,0,3.1,0.7,4.3,1.8l-0.2-2.6v-5.9h5.1v24.5h-4.2l-0.4-1.7h-0.1
			c-1.2,1.2-2.9,2.1-4.6,2.1C290.8,79.6,288,76.2,288,70.5z M299.3,73.8v-7.1c-0.9-0.8-1.9-1.1-2.9-1.1c-1.7,0-3.1,1.5-3.1,4.8
			c0,3.4,1.2,4.9,3.2,4.9C297.5,75.4,298.4,75,299.3,73.8z"/>
		<path class="st1" d="M308.1,74.3c0-3.7,2.9-5.6,9.8-6.4c-0.1-1.5-0.9-2.5-2.7-2.5c-1.5,0-2.9,0.6-4.6,1.6l-1.8-3.4
			c2.2-1.3,4.7-2.3,7.4-2.3c4.4,0,6.9,2.5,6.9,7.9v9.9h-4.2l-0.4-1.8h-0.1c-1.5,1.3-3.1,2.2-5.1,2.2
			C310.1,79.6,308.1,77.3,308.1,74.3z M317.9,74.1v-3c-3.7,0.5-4.9,1.5-4.9,2.9c0,1.1,0.8,1.7,2,1.7C316.2,75.6,317,75,317.9,74.1z
			 M314.2,56.6l5.4-6.4l3.5,3.4l-6.3,5.5L314.2,56.6z"/>
		<path class="st1" d="M326.4,70.5c0-5.8,4.3-9.1,9-9.1c2.1,0,3.8,0.8,5.1,1.9l-2.4,3.3c-0.8-0.7-1.5-1-2.4-1c-2.5,0-4.1,2-4.1,5
			s1.7,4.9,3.9,4.9c1.1,0,2.2-0.6,3.1-1.3l2,3.4c-1.7,1.5-3.8,2.1-5.7,2.1C330.1,79.6,326.4,76.2,326.4,70.5z"/>
		<path class="st1" d="M344.4,72.8v-7h-2.4V62l2.7-0.2l0.6-4.6h4.3v4.6h4.2v4h-4.2v7c0,2,0.9,2.8,2.2,2.8c0.6,0,1.2-0.2,1.7-0.3
			l0.8,3.7c-0.9,0.3-2.2,0.6-3.9,0.6C346.2,79.6,344.4,76.9,344.4,72.8z"/>
		<path class="st1" d="M356.7,56.6c0-1.6,1.3-2.7,3-2.7c1.7,0,3,1.1,3,2.7c0,1.6-1.3,2.7-3,2.7C358,59.3,356.7,58.1,356.7,56.6z
			 M357.1,61.8h5.1v17.4h-5.1V61.8z"/>
		<path class="st1" d="M365.8,70.5c0-5.8,4.3-9.1,9-9.1c2.1,0,3.8,0.8,5.1,1.9l-2.4,3.3c-0.8-0.7-1.5-1-2.4-1c-2.5,0-4.1,2-4.1,5
			s1.7,4.9,3.9,4.9c1.1,0,2.2-0.6,3.1-1.3l2,3.4c-1.7,1.5-3.8,2.1-5.7,2.1C369.5,79.6,365.8,76.2,365.8,70.5z"/>
		<path class="st1" d="M382.2,70.5c0-5.8,4.1-9.1,8.5-9.1s8.5,3.3,8.5,9.1c0,5.8-4.1,9.1-8.5,9.1S382.2,76.2,382.2,70.5z
			 M393.8,70.5c0-3-1.1-5-3.2-5s-3.2,2-3.2,5s1.1,4.9,3.2,4.9S393.8,73.5,393.8,70.5z"/>
		<path class="st1" d="M401.1,77.2l2.3-3.2c1.6,1.2,3,1.8,4.5,1.8c1.5,0,2.2-0.6,2.2-1.5c0-1.1-1.7-1.7-3.5-2.4
			c-2.1-0.8-4.6-2.2-4.6-5.1c0-3.2,2.6-5.4,6.6-5.4c2.7,0,4.6,1.1,6.1,2.2l-2.3,3.1c-1.2-0.9-2.5-1.5-3.7-1.5c-1.3,0-2,0.5-2,1.4
			c0,1.1,1.6,1.5,3.4,2.2c2.2,0.8,4.7,2.1,4.7,5.2c0,3.1-2.5,5.6-7.1,5.6C405.4,79.6,402.8,78.6,401.1,77.2z"/>
	</g>
</g>
<line class="st2" x1="113.7" y1="88.6" x2="411" y2="88.6"/>
<path class="st3" d="M437.1,208.7H265.6V275c0,2-1.6,3.6-3.6,3.6h-23.3v64.6c0,2.7,2.2,4.8,4.8,4.8h193.6c2.7,0,4.8-2.2,4.8-4.8
	V213.5C442,210.9,439.8,208.7,437.1,208.7z"/>
<path class="st4" d="M252.9,343.2v-64.6h-14.2v64.6c0,2.7,2.2,4.8,4.8,4.8h14.2C255.1,348,252.9,345.9,252.9,343.2z"/>
<path class="st5" d="M395.5,284.5c-1.7-2-4.5-2-6.2,0l-25.2,29.8c-1.7,2-4.5,2-6.2,0L310.4,258c-1.7-2-4.5-2-6.2,0l-65.5,77.7v7.6
	c0,2.7,2.2,4.8,4.8,4.8h193.6c2.7,0,4.8-2.2,4.8-4.8v-3.7L395.5,284.5z"/>
<circle class="st1" cx="408" cy="244.7" r="18.1"/>
<path class="st6" d="M399.9,244.7c0-8.3,5.6-15.3,13.1-17.4c-1.6-0.5-3.3-0.7-5-0.7c-10,0-18.1,8.1-18.1,18.1
	c0,10,8.1,18.1,18.1,18.1c1.7,0,3.4-0.3,5-0.7C405.5,260,399.9,253,399.9,244.7z"/>
<path class="st7" d="M266.3,275.8c0,2-1.6,3.6-3.6,3.6H78.5c-2,0-3.6-1.6-3.6-3.6V135.2c0-2,1.6-3.6,3.6-3.6h184.3
	c2,0,3.6,1.6,3.6,3.6V275.8z"/>
<path class="st1" d="M134.1,170.4c0-3.9,2.8-5.6,6.2-3.6l60.7,35.1c3.4,2,3.4,5.2,0,7.2l-60.7,35.1c-3.4,2-6.2,0.4-6.2-3.6V170.4z"
	/>
<path class="st6" d="M148.3,171.5l-8-4.6c-3.4-2-6.2-0.4-6.2,3.6v70.1c0,3.9,2.8,5.6,6.2,3.6l8-4.6
	C148.3,239.5,148.3,171.5,148.3,171.5z"/>
<g>
	<path class="st8" d="M255.2,159.3c0,1.2-1,2.2-2.2,2.2H238c-1.2,0-2.2-1-2.2-2.2v-15.1c0-1.2,1-2.2,2.2-2.2h15.1
		c1.2,0,2.2,1,2.2,2.2L255.2,159.3L255.2,159.3z"/>
	<path class="st8" d="M255.2,186.1c0,1.2-1,2.2-2.2,2.2H238c-1.2,0-2.2-1-2.2-2.2v-15.1c0-1.2,1-2.2,2.2-2.2h15.1
		c1.2,0,2.2,1,2.2,2.2L255.2,186.1L255.2,186.1z"/>
	<path class="st8" d="M255.2,213c0,1.2-1,2.2-2.2,2.2H238c-1.2,0-2.2-1-2.2-2.2V198c0-1.2,1-2.2,2.2-2.2h15.1c1.2,0,2.2,1,2.2,2.2
		L255.2,213L255.2,213z"/>
	<path class="st8" d="M255.2,239.9c0,1.2-1,2.2-2.2,2.2H238c-1.2,0-2.2-1-2.2-2.2v-15.1c0-1.2,1-2.2,2.2-2.2h15.1
		c1.2,0,2.2,1,2.2,2.2L255.2,239.9L255.2,239.9z"/>
	<path class="st8" d="M255.2,266.8c0,1.2-1,2.2-2.2,2.2H238c-1.2,0-2.2-1-2.2-2.2v-15.1c0-1.2,1-2.2,2.2-2.2h15.1
		c1.2,0,2.2,1,2.2,2.2L255.2,266.8L255.2,266.8z"/>
	<path class="st8" d="M105.4,159.3c0,1.2-1,2.2-2.2,2.2H88.2c-1.2,0-2.2-1-2.2-2.2v-15.1c0-1.2,1-2.2,2.2-2.2h15.1
		c1.2,0,2.2,1,2.2,2.2V159.3z"/>
	<path class="st8" d="M105.4,186.1c0,1.2-1,2.2-2.2,2.2H88.2c-1.2,0-2.2-1-2.2-2.2v-15.1c0-1.2,1-2.2,2.2-2.2h15.1
		c1.2,0,2.2,1,2.2,2.2V186.1z"/>
	<path class="st8" d="M105.4,213c0,1.2-1,2.2-2.2,2.2H88.2c-1.2,0-2.2-1-2.2-2.2V198c0-1.2,1-2.2,2.2-2.2h15.1c1.2,0,2.2,1,2.2,2.2
		V213z"/>
	<path class="st8" d="M105.4,239.9c0,1.2-1,2.2-2.2,2.2H88.2c-1.2,0-2.2-1-2.2-2.2v-15.1c0-1.2,1-2.2,2.2-2.2h15.1
		c1.2,0,2.2,1,2.2,2.2V239.9z"/>
	<path class="st8" d="M105.4,266.8c0,1.2-1,2.2-2.2,2.2H88.2c-1.2,0-2.2-1-2.2-2.2v-15.1c0-1.2,1-2.2,2.2-2.2h15.1
		c1.2,0,2.2,1,2.2,2.2V266.8z"/>
</g>
<path class="st9" d="M222.6,296.5H97.9c-2,0-3.6,1.6-3.6,3.6v47.5c5,16.6,12.3,32.2,21.7,46.4h45.2l29.2,29.2c1.4,1.4,2.5,0.9,2.5-1
	v-28.2h29.6c2,0,3.6-1.6,3.6-3.6v-90.3C226.1,298.1,224.5,296.5,222.6,296.5z"/>
<path class="st10" d="M108.5,300.1c0-2,1.6-3.6,3.6-3.6H97.9c-2,0-3.6,1.6-3.6,3.6v47.5c3.6,11.9,8.4,23.3,14.2,34V300.1z"/>
<g>
	<path class="st1" d="M195.8,332.1h-71.2c-3,0-5.4-2.4-5.4-5.4c0-3,2.4-5.4,5.4-5.4h71.2c3,0,5.4,2.4,5.4,5.4
		C201.2,329.7,198.8,332.1,195.8,332.1z"/>
	<path class="st1" d="M195.8,350.9h-71.2c-3,0-5.4-2.4-5.4-5.4c0-3,2.4-5.4,5.4-5.4h71.2c3,0,5.4,2.4,5.4,5.4
		C201.2,348.4,198.8,350.9,195.8,350.9z"/>
	<path class="st1" d="M160.4,369.6h-35.7c-3,0-5.4-2.4-5.4-5.4s2.4-5.4,5.4-5.4h35.7c3,0,5.4,2.4,5.4,5.4S163.3,369.6,160.4,369.6z"
		/>
</g>
<path class="st11" d="M355.7,366.5h-113c-2,0-3.6,1.6-3.6,3.6v85.5c0,2,1.6,3.6,3.6,3.6h88.1c10-4.2,19.5-9.3,28.5-15.2v-73.9
	C359.2,368.1,357.6,366.5,355.7,366.5z"/>
<path class="st12" d="M253.3,455.6v-85.5c0-2,1.6-3.6,3.6-3.6h-14.2c-2,0-3.6,1.6-3.6,3.6v85.5c0,2,1.6,3.6,3.6,3.6h14.2
	C254.9,459.2,253.3,457.6,253.3,455.6z"/>
<path class="st1" d="M279.2,393.5c0-3.9,2.8-5.6,6.2-3.6l33.5,19.3c3.4,2,3.4,5.2,0,7.2l-33.5,19.3c-3.4,2-6.2,0.4-6.2-3.6V393.5z"
	/>
</svg>
